<?plantuml 1.2026.0?><svg xmlns="http://www.w3.org/2000/svg" xmlns:xlink="http://www.w3.org/1999/xlink" contentStyleType="text/css" data-diagram-type="SEQUENCE" height="1156px" preserveAspectRatio="none" style="width:994px;height:1156px;background:#FFFFFF;" version="1.1" viewBox="0 0 994 1156" width="994px" zoomAndPan="magnify"><title>**GridTokenX: User &amp; Device Onboarding**
Registry &amp; Governance Flow</title><defs/><g><text fill="#000000" font-family="'Helvetica Neue'" font-size="14" font-weight="bold" lengthAdjust="spacing" textLength="263.662" x="363.948" y="29.056">GridTokenX: User &amp; Device Onboarding</text><text fill="#000000" font-family="'Helvetica Neue'" font-size="14" font-weight="bold" lengthAdjust="spacing" textLength="189.252" x="401.153" y="46.15">Registry &amp; Governance Flow</text><g><title>Prosumer</title><rect fill="#000000" fill-opacity="0.00000" height="1011.733" width="8" x="34.838" y="137.89"/><line style="stroke:#666666;stroke-width:0.5;stroke-dasharray:5,5;" x1="38.338" x2="38.338" y1="137.89" y2="1149.623"/></g><g><title>API Gateway</title><rect fill="#000000" fill-opacity="0.00000" height="1011.733" width="8" x="201.062" y="137.89"/><line style="stroke:#666666;stroke-width:0.5;stroke-dasharray:5,5;" x1="204.562" x2="204.562" y1="137.89" y2="1149.623"/></g><g><title>Registry Program</title><rect fill="#000000" fill-opacity="0.00000" height="1011.733" width="8" x="370.666" y="137.89"/><line style="stroke:#666666;stroke-width:0.5;stroke-dasharray:5,5;" x1="374.166" x2="374.166" y1="137.89" y2="1149.623"/></g><g><title/><rect fill="#FFFFFF" height="99.264" style="stroke:#181818;stroke-width:1;" width="10" x="369.166" y="324.331"/></g><g><title/><rect fill="#FFFFFF" height="141.896" style="stroke:#181818;stroke-width:1;" width="10" x="369.166" y="961.411"/></g><g><title>Governance Program</title><rect fill="#000000" fill-opacity="0.00000" height="1011.733" width="8" x="516.13" y="137.89"/><line style="stroke:#666666;stroke-width:0.5;stroke-dasharray:5,5;" x1="519.63" x2="519.63" y1="137.89" y2="1149.623"/></g><g><title/><rect fill="#FFFFFF" height="99.264" style="stroke:#181818;stroke-width:1;" width="10" x="514.63" y="581.72"/></g><g><title/><rect fill="#FFFFFF" height="70.948" style="stroke:#181818;stroke-width:1;" width="10" x="514.63" y="760.654"/></g><g><title>Off-Chain DB</title><rect fill="#000000" fill-opacity="0.00000" height="1011.733" width="8" x="645.029" y="137.89"/><line style="stroke:#666666;stroke-width:0.5;stroke-dasharray:5,5;" x1="648.529" x2="648.529" y1="137.89" y2="1149.623"/></g><g><title>ErcCertificate PDA</title><rect fill="#000000" fill-opacity="0.00000" height="1011.733" width="8" x="761.36" y="137.89"/><line style="stroke:#666666;stroke-width:0.5;stroke-dasharray:5,5;" x1="764.86" x2="764.86" y1="137.89" y2="1149.623"/></g><g><title>User PDA</title><rect fill="#000000" fill-opacity="0.00000" height="1011.733" width="8" x="866.274" y="137.89"/><line style="stroke:#666666;stroke-width:0.5;stroke-dasharray:5,5;" x1="869.774" x2="869.774" y1="137.89" y2="1149.623"/></g><g><title>Meter PDA</title><rect fill="#000000" fill-opacity="0.00000" height="1011.733" width="8" x="946.961" y="137.89"/><line style="stroke:#666666;stroke-width:0.5;stroke-dasharray:5,5;" x1="950.461" x2="950.461" y1="137.89" y2="1149.623"/></g><text fill="#000000" font-family="'Helvetica Neue'" font-size="14" lengthAdjust="spacing" textLength="60.676" x="5" y="134.908">Prosumer</text><ellipse cx="38.338" cy="76.688" fill="#E2E2F0" rx="16" ry="16" style="stroke:#181818;stroke-width:0.5;"/><path d="M38.338,96.688 C42.338,96.688 45.338,96.688 49.338,92.688 C57.338,92.688 65.338,100.688 65.338,108.688 L65.338,112.688 C65.338,116.688 61.338,120.688 57.338,120.688 L19.338,120.688 C15.338,120.688 11.338,116.688 11.338,112.688 L11.338,108.688 C11.338,100.688 19.338,92.688 27.338,92.688 C31.338,96.688 34.338,96.688 38.338,96.688" fill="#E2E2F0" style="stroke:#181818;stroke-width:0.5;"/><rect fill="#E2E2F0" height="30.702" rx="2.5" ry="2.5" style="stroke:#181818;stroke-width:0.5;" width="94.864" x="157.13" y="106.188"/><text fill="#000000" font-family="'Helvetica Neue'" font-size="14" lengthAdjust="spacing" textLength="80.864" x="164.13" y="126.908">API Gateway</text><rect fill="#E2E2F0" height="30.702" rx="2.5" ry="2.5" style="stroke:#181818;stroke-width:0.5;" width="123.144" x="312.594" y="106.188"/><text fill="#000000" font-family="'Helvetica Neue'" font-size="14" lengthAdjust="spacing" textLength="109.144" x="319.594" y="126.908">Registry Program</text><rect fill="#E2E2F0" height="30.702" rx="2.5" ry="2.5" style="stroke:#181818;stroke-width:0.5;" width="147.784" x="445.738" y="106.188"/><text fill="#000000" font-family="'Helvetica Neue'" font-size="14" lengthAdjust="spacing" textLength="133.784" x="452.738" y="126.908">Governance Program</text><text fill="#000000" font-family="'Helvetica Neue'" font-size="14" lengthAdjust="spacing" textLength="84.014" x="603.522" y="134.908">Off-Chain DB</text><path d="M630.529,85.188 C630.529,75.188 648.529,75.188 648.529,75.188 C648.529,75.188 666.529,75.188 666.529,85.188 L666.529,111.188 C666.529,121.188 648.529,121.188 648.529,121.188 C648.529,121.188 630.529,121.188 630.529,111.188 L630.529,85.188" fill="#E2E2F0" style="stroke:#181818;stroke-width:0.5;"/><path d="M630.529,85.188 C630.529,95.188 648.529,95.188 648.529,95.188 C648.529,95.188 666.529,95.188 666.529,85.188" fill="none" style="stroke:#181818;stroke-width:0.5;"/><text fill="#000000" font-family="'Helvetica Neue'" font-size="14" lengthAdjust="spacing" textLength="116.648" x="703.536" y="134.908">ErcCertificate PDA</text><ellipse cx="764.86" cy="105.188" fill="#E2E2F0" rx="12" ry="12" style="stroke:#181818;stroke-width:0.5;"/><line style="stroke:#181818;stroke-width:0.5;" x1="752.86" x2="776.86" y1="119.188" y2="119.188"/><text fill="#000000" font-family="'Helvetica Neue'" font-size="14" lengthAdjust="spacing" textLength="61.18" x="836.184" y="134.908">User PDA</text><ellipse cx="869.774" cy="105.188" fill="#E2E2F0" rx="12" ry="12" style="stroke:#181818;stroke-width:0.5;"/><line style="stroke:#181818;stroke-width:0.5;" x1="857.774" x2="881.774" y1="119.188" y2="119.188"/><text fill="#000000" font-family="'Helvetica Neue'" font-size="14" lengthAdjust="spacing" textLength="68.194" x="913.364" y="134.908">Meter PDA</text><ellipse cx="950.461" cy="105.188" fill="#E2E2F0" rx="12" ry="12" style="stroke:#181818;stroke-width:0.5;"/><line style="stroke:#181818;stroke-width:0.5;" x1="938.461" x2="962.461" y1="119.188" y2="119.188"/><rect fill="#FFFFFF" height="3" style="stroke:#FFFFFF;stroke-width:1;" width="982.558" x="5" y="166.8265"/><line style="stroke:#444444;stroke-width:1;" x1="5" x2="987.558" y1="166.8265" y2="166.8265"/><line style="stroke:#444444;stroke-width:1;" x1="5" x2="987.558" y1="169.8265" y2="169.8265"/><rect fill="#FFFFFF" height="23.873" style="stroke:#444444;stroke-width:2;" width="126.164" x="433.197" y="155.89"/><text fill="#444444" font-family="'Helvetica Neue'" font-size="13" font-weight="bold" lengthAdjust="spacing" textLength="108.55" x="439.197" y="172.942">User Registration</text><polygon fill="#666666" points="192.562,220.395,202.562,224.395,192.562,228.395,196.562,224.395" style="stroke:#666666;stroke-width:1;"/><line style="stroke:#666666;stroke-width:1;" x1="38.338" x2="198.562" y1="224.395" y2="224.395"/><text fill="#666666" font-family="'Helvetica Neue'" font-size="12" lengthAdjust="spacing" textLength="102.432" x="70.234" y="205.523">Register(UserType,</text><text fill="#666666" font-family="'Helvetica Neue'" font-size="12" lengthAdjust="spacing" textLength="49.56" x="96.67" y="219.839">Location)</text><polygon fill="#666666" points="636.529,248.711,646.529,252.711,636.529,256.711,640.529,252.711" style="stroke:#666666;stroke-width:1;"/><line style="stroke:#666666;stroke-width:1;" x1="204.562" x2="642.529" y1="252.711" y2="252.711"/><text fill="#666666" font-family="'Helvetica Neue'" font-size="12" lengthAdjust="spacing" textLength="24.444" x="363.4255" y="248.155">KYC</text><text fill="#666666" font-family="'Helvetica Neue'" font-size="12" lengthAdjust="spacing" textLength="3.336" x="387.8695" y="248.155">&#160;</text><text fill="#666666" font-family="'Helvetica Neue'" font-size="12" lengthAdjust="spacing" textLength="3.996" x="391.2055" y="248.155">/</text><text fill="#666666" font-family="'Helvetica Neue'" font-size="12" lengthAdjust="spacing" textLength="3.336" x="395.2015" y="248.155">&#160;</text><text fill="#666666" font-family="'Helvetica Neue'" font-size="12" lengthAdjust="spacing" textLength="53.34" x="398.5375" y="248.155">Sanctions</text><text fill="#666666" font-family="'Helvetica Neue'" font-size="12" lengthAdjust="spacing" textLength="3.336" x="451.8775" y="248.155">&#160;</text><text fill="#666666" font-family="'Helvetica Neue'" font-size="12" lengthAdjust="spacing" textLength="34.452" x="455.2135" y="248.155">Check</text><polygon fill="#666666" points="215.562,277.027,205.562,281.027,215.562,285.027,211.562,281.027" style="stroke:#666666;stroke-width:1;"/><line style="stroke:#666666;stroke-width:1;stroke-dasharray:2,2;" x1="209.562" x2="647.529" y1="281.027" y2="281.027"/><text fill="#666666" font-family="'Helvetica Neue'" font-size="12" lengthAdjust="spacing" textLength="52.452" x="400.3195" y="276.471">Approved</text><polygon fill="#666666" points="357.166,320.331,367.166,324.331,357.166,328.331,361.166,324.331" style="stroke:#666666;stroke-width:1;"/><line style="stroke:#666666;stroke-width:1;" x1="204.562" x2="363.166" y1="324.331" y2="324.331"/><text fill="#666666" font-family="'Helvetica Neue'" font-size="12" font-weight="bold" lengthAdjust="spacing" textLength="136.884" x="218.422" y="305.075">register_user(UserType,</text><text fill="#666666" font-family="'Helvetica Neue'" font-size="12" font-weight="bold" lengthAdjust="spacing" textLength="21.564" x="258.19" y="319.727">Lat,</text><text fill="#666666" font-family="'Helvetica Neue'" font-size="12" font-weight="bold" lengthAdjust="spacing" textLength="3.336" x="279.754" y="319.727">&#160;</text><text fill="#666666" font-family="'Helvetica Neue'" font-size="12" font-weight="bold" lengthAdjust="spacing" textLength="32.448" x="283.09" y="319.727">Long)</text><polygon fill="#666666" points="857.774,362.963,867.774,366.963,857.774,370.963,861.774,366.963" style="stroke:#666666;stroke-width:1;"/><line style="stroke:#666666;stroke-width:1;" x1="379.166" x2="863.774" y1="366.963" y2="366.963"/><text fill="#666666" font-family="'Helvetica Neue'" font-size="12" lengthAdjust="spacing" textLength="43.104" x="589.25" y="348.091">Initialise</text><text fill="#666666" font-family="'Helvetica Neue'" font-size="12" lengthAdjust="spacing" textLength="3.336" x="632.354" y="348.091">&#160;</text><text fill="#666666" font-family="'Helvetica Neue'" font-size="12" lengthAdjust="spacing" textLength="24" x="635.69" y="348.091">PDA</text><text fill="#666666" font-family="'Helvetica Neue'" font-size="12" lengthAdjust="spacing" textLength="86.1" x="554.75" y="362.407">seeds=[b"user",</text><text fill="#666666" font-family="'Helvetica Neue'" font-size="12" lengthAdjust="spacing" textLength="3.336" x="640.85" y="362.407">&#160;</text><text fill="#666666" font-family="'Helvetica Neue'" font-size="12" lengthAdjust="spacing" textLength="50.004" x="644.186" y="362.407">authority]</text><polygon fill="#666666" points="857.774,391.279,867.774,395.279,857.774,399.279,861.774,395.279" style="stroke:#666666;stroke-width:1;"/><line style="stroke:#666666;stroke-width:1;" x1="379.166" x2="863.774" y1="395.279" y2="395.279"/><text fill="#666666" font-family="'Helvetica Neue'" font-size="12" lengthAdjust="spacing" textLength="18" x="573.086" y="390.723">Set</text><text fill="#666666" font-family="'Helvetica Neue'" font-size="12" lengthAdjust="spacing" textLength="3.336" x="591.086" y="390.723">&#160;</text><text fill="#666666" font-family="'Helvetica Neue'" font-size="12" lengthAdjust="spacing" textLength="34.452" x="594.422" y="390.723">Status</text><text fill="#666666" font-family="'Helvetica Neue'" font-size="12" lengthAdjust="spacing" textLength="3.336" x="628.874" y="390.723">&#160;</text><text fill="#666666" font-family="'Helvetica Neue'" font-size="12" lengthAdjust="spacing" textLength="7.2" x="632.21" y="390.723">=</text><text fill="#666666" font-family="'Helvetica Neue'" font-size="12" lengthAdjust="spacing" textLength="3.336" x="639.41" y="390.723">&#160;</text><text fill="#666666" font-family="'Helvetica Neue'" font-size="12" lengthAdjust="spacing" textLength="33.108" x="642.746" y="390.723">Active</text><polygon fill="#666666" points="215.562,419.595,205.562,423.595,215.562,427.595,211.562,423.595" style="stroke:#666666;stroke-width:1;"/><line style="stroke:#666666;stroke-width:1;stroke-dasharray:2,2;" x1="209.562" x2="368.166" y1="423.595" y2="423.595"/><text fill="#666666" font-family="'Helvetica Neue'" font-size="12" lengthAdjust="spacing" textLength="45.78" x="263.974" y="419.039">Success</text><polygon fill="#666666" points="49.338,447.911,39.338,451.911,49.338,455.911,45.338,451.911" style="stroke:#666666;stroke-width:1;"/><line style="stroke:#666666;stroke-width:1;stroke-dasharray:2,2;" x1="43.338" x2="203.562" y1="451.911" y2="451.911"/><text fill="#666666" font-family="'Helvetica Neue'" font-size="12" lengthAdjust="spacing" textLength="64.44" x="61.444" y="447.355">Registration</text><text fill="#666666" font-family="'Helvetica Neue'" font-size="12" lengthAdjust="spacing" textLength="3.336" x="125.884" y="447.355">&#160;</text><text fill="#666666" font-family="'Helvetica Neue'" font-size="12" lengthAdjust="spacing" textLength="52.236" x="129.22" y="447.355">Complete</text><rect fill="#FFFFFF" height="3" style="stroke:#FFFFFF;stroke-width:1;" width="982.558" x="5" y="480.8475"/><line style="stroke:#444444;stroke-width:1;" x1="5" x2="987.558" y1="480.8475" y2="480.8475"/><line style="stroke:#444444;stroke-width:1;" x1="5" x2="987.558" y1="483.8475" y2="483.8475"/><rect fill="#FFFFFF" height="23.873" style="stroke:#444444;stroke-width:2;" width="188.512" x="402.023" y="469.911"/><text fill="#444444" font-family="'Helvetica Neue'" font-size="13" font-weight="bold" lengthAdjust="spacing" textLength="170.898" x="408.023" y="486.963">Energy Certificate Issuance</text><polygon fill="#666666" points="192.562,534.416,202.562,538.416,192.562,542.416,196.562,538.416" style="stroke:#666666;stroke-width:1;"/><line style="stroke:#666666;stroke-width:1;" x1="38.338" x2="198.562" y1="538.416" y2="538.416"/><text fill="#666666" font-family="'Helvetica Neue'" font-size="12" lengthAdjust="spacing" textLength="44.676" x="61.006" y="519.544">Request</text><text fill="#666666" font-family="'Helvetica Neue'" font-size="12" lengthAdjust="spacing" textLength="3.336" x="105.682" y="519.544">&#160;</text><text fill="#666666" font-family="'Helvetica Neue'" font-size="12" lengthAdjust="spacing" textLength="24.216" x="109.018" y="519.544">ERC</text><text fill="#666666" font-family="'Helvetica Neue'" font-size="12" lengthAdjust="spacing" textLength="3.336" x="133.234" y="519.544">&#160;</text><text fill="#666666" font-family="'Helvetica Neue'" font-size="12" lengthAdjust="spacing" textLength="31.548" x="136.57" y="519.544">(proof</text><text fill="#666666" font-family="'Helvetica Neue'" font-size="12" lengthAdjust="spacing" textLength="3.336" x="168.118" y="519.544">&#160;</text><text fill="#666666" font-family="'Helvetica Neue'" font-size="12" lengthAdjust="spacing" textLength="10.44" x="171.454" y="519.544">of</text><text fill="#666666" font-family="'Helvetica Neue'" font-size="12" lengthAdjust="spacing" textLength="55.32" x="72.346" y="533.86">renewable</text><text fill="#666666" font-family="'Helvetica Neue'" font-size="12" lengthAdjust="spacing" textLength="3.336" x="127.666" y="533.86">&#160;</text><text fill="#666666" font-family="'Helvetica Neue'" font-size="12" lengthAdjust="spacing" textLength="39.552" x="131.002" y="533.86">source)</text><polygon fill="#666666" points="502.63,577.72,512.63,581.72,502.63,585.72,506.63,581.72" style="stroke:#666666;stroke-width:1;"/><line style="stroke:#666666;stroke-width:1;" x1="204.562" x2="508.63" y1="581.72" y2="581.72"/><text fill="#666666" font-family="'Helvetica Neue'" font-size="12" font-weight="bold" lengthAdjust="spacing" textLength="100.416" x="309.388" y="562.464">issue_erc(cert_id,</text><text fill="#666666" font-family="'Helvetica Neue'" font-size="12" font-weight="bold" lengthAdjust="spacing" textLength="46.884" x="313.042" y="577.116">amount,</text><text fill="#666666" font-family="'Helvetica Neue'" font-size="12" font-weight="bold" lengthAdjust="spacing" textLength="3.336" x="359.926" y="577.116">&#160;</text><text fill="#666666" font-family="'Helvetica Neue'" font-size="12" font-weight="bold" lengthAdjust="spacing" textLength="42.888" x="363.262" y="577.116">source)</text><polygon fill="#666666" points="752.86,620.352,762.86,624.352,752.86,628.352,756.86,624.352" style="stroke:#666666;stroke-width:1;"/><line style="stroke:#666666;stroke-width:1;" x1="524.63" x2="758.86" y1="624.352" y2="624.352"/><text fill="#666666" font-family="'Helvetica Neue'" font-size="12" lengthAdjust="spacing" textLength="16.224" x="622.965" y="605.48">Init</text><text fill="#666666" font-family="'Helvetica Neue'" font-size="12" lengthAdjust="spacing" textLength="3.336" x="639.189" y="605.48">&#160;</text><text fill="#666666" font-family="'Helvetica Neue'" font-size="12" lengthAdjust="spacing" textLength="24" x="642.525" y="605.48">PDA</text><text fill="#666666" font-family="'Helvetica Neue'" font-size="12" lengthAdjust="spacing" textLength="106.536" x="583.365" y="619.796">seeds=[b"erc_cert",</text><text fill="#666666" font-family="'Helvetica Neue'" font-size="12" lengthAdjust="spacing" textLength="3.336" x="689.901" y="619.796">&#160;</text><text fill="#666666" font-family="'Helvetica Neue'" font-size="12" lengthAdjust="spacing" textLength="12.888" x="693.237" y="619.796">id]</text><polygon fill="#666666" points="752.86,648.668,762.86,652.668,752.86,656.668,756.86,652.668" style="stroke:#666666;stroke-width:1;"/><line style="stroke:#666666;stroke-width:1;" x1="524.63" x2="758.86" y1="652.668" y2="652.668"/><text fill="#666666" font-family="'Helvetica Neue'" font-size="12" lengthAdjust="spacing" textLength="28.884" x="588.075" y="648.112">Store</text><text fill="#666666" font-family="'Helvetica Neue'" font-size="12" lengthAdjust="spacing" textLength="3.336" x="616.959" y="648.112">&#160;</text><text fill="#666666" font-family="'Helvetica Neue'" font-size="12" lengthAdjust="spacing" textLength="52.668" x="620.295" y="648.112">Validation</text><text fill="#666666" font-family="'Helvetica Neue'" font-size="12" lengthAdjust="spacing" textLength="3.336" x="672.963" y="648.112">&#160;</text><text fill="#666666" font-family="'Helvetica Neue'" font-size="12" lengthAdjust="spacing" textLength="25.116" x="676.299" y="648.112">Data</text><polygon fill="#666666" points="215.562,676.984,205.562,680.984,215.562,684.984,211.562,680.984" style="stroke:#666666;stroke-width:1;"/><line style="stroke:#666666;stroke-width:1;stroke-dasharray:2,2;" x1="209.562" x2="513.63" y1="680.984" y2="680.984"/><text fill="#666666" font-family="'Helvetica Neue'" font-size="12" lengthAdjust="spacing" textLength="42.888" x="338.152" y="676.428">Created</text><path d="M524.63,693.984 L524.63,734.984 L715.63,734.984 L715.63,703.984 L705.63,693.984 L524.63,693.984" fill="#FEFFDD" style="stroke:#181818;stroke-width:0.5;"/><path d="M705.63,693.984 L705.63,703.984 L715.63,703.984 L705.63,693.984" fill="#FEFFDD" style="stroke:#181818;stroke-width:0.5;"/><text fill="#000000" font-family="'Helvetica Neue'" font-size="13" lengthAdjust="spacing" textLength="37.336" x="539.63" y="711.724">Admin</text><text fill="#000000" font-family="'Helvetica Neue'" font-size="13" lengthAdjust="spacing" textLength="3.614" x="576.966" y="711.724">&#160;</text><text fill="#000000" font-family="'Helvetica Neue'" font-size="13" lengthAdjust="spacing" textLength="51.519" x="580.58" y="711.724">validates</text><text fill="#000000" font-family="'Helvetica Neue'" font-size="13" lengthAdjust="spacing" textLength="3.614" x="632.099" y="711.724">&#160;</text><text fill="#000000" font-family="'Helvetica Neue'" font-size="13" lengthAdjust="spacing" textLength="65.273" x="635.713" y="711.724">documents</text><text fill="#000000" font-family="'Helvetica Neue'" font-size="13" lengthAdjust="spacing" textLength="51.519" x="594.5485" y="727.233">off-chain</text><polygon fill="#666666" points="502.63,756.654,512.63,760.654,502.63,764.654,506.63,760.654" style="stroke:#666666;stroke-width:1;"/><line style="stroke:#666666;stroke-width:1;" x1="204.562" x2="508.63" y1="760.654" y2="760.654"/><text fill="#666666" font-family="'Helvetica Neue'" font-size="12" font-weight="bold" lengthAdjust="spacing" textLength="144.852" x="287.17" y="756.05">validate_erc_for_trading()</text><polygon fill="#666666" points="752.86,799.286,762.86,803.286,752.86,807.286,756.86,803.286" style="stroke:#666666;stroke-width:1;"/><line style="stroke:#666666;stroke-width:1;" x1="524.63" x2="758.86" y1="803.286" y2="803.286"/><text fill="#666666" font-family="'Helvetica Neue'" font-size="12" lengthAdjust="spacing" textLength="18" x="572.475" y="784.414">Set</text><text fill="#666666" font-family="'Helvetica Neue'" font-size="12" lengthAdjust="spacing" textLength="3.336" x="590.475" y="784.414">&#160;</text><text fill="#666666" font-family="'Helvetica Neue'" font-size="12" lengthAdjust="spacing" textLength="112.668" x="593.811" y="784.414">validated_for_trading</text><text fill="#666666" font-family="'Helvetica Neue'" font-size="12" lengthAdjust="spacing" textLength="3.336" x="706.479" y="784.414">&#160;</text><text fill="#666666" font-family="'Helvetica Neue'" font-size="12" lengthAdjust="spacing" textLength="7.2" x="709.815" y="784.414">=</text><text fill="#666666" font-family="'Helvetica Neue'" font-size="12" lengthAdjust="spacing" textLength="20.892" x="634.299" y="798.73">true</text><polygon fill="#666666" points="215.562,827.602,205.562,831.602,215.562,835.602,211.562,831.602" style="stroke:#666666;stroke-width:1;"/><line style="stroke:#666666;stroke-width:1;stroke-dasharray:2,2;" x1="209.562" x2="513.63" y1="831.602" y2="831.602"/><text fill="#666666" font-family="'Helvetica Neue'" font-size="12" lengthAdjust="spacing" textLength="50.004" x="334.594" y="827.046">Validated</text><rect fill="#FFFFFF" height="3" style="stroke:#FFFFFF;stroke-width:1;" width="982.558" x="5" y="860.5385"/><line style="stroke:#444444;stroke-width:1;" x1="5" x2="987.558" y1="860.5385" y2="860.5385"/><line style="stroke:#444444;stroke-width:1;" x1="5" x2="987.558" y1="863.5385" y2="863.5385"/><rect fill="#FFFFFF" height="23.873" style="stroke:#444444;stroke-width:2;" width="143.74" x="424.409" y="849.602"/><text fill="#444444" font-family="'Helvetica Neue'" font-size="13" font-weight="bold" lengthAdjust="spacing" textLength="126.126" x="430.409" y="866.654">Smart Meter Linking</text><polygon fill="#666666" points="192.562,914.107,202.562,918.107,192.562,922.107,196.562,918.107" style="stroke:#666666;stroke-width:1;"/><line style="stroke:#666666;stroke-width:1;" x1="38.338" x2="198.562" y1="918.107" y2="918.107"/><text fill="#666666" font-family="'Helvetica Neue'" font-size="12" lengthAdjust="spacing" textLength="44.436" x="50.338" y="899.235">Register</text><text fill="#666666" font-family="'Helvetica Neue'" font-size="12" lengthAdjust="spacing" textLength="3.336" x="94.774" y="899.235">&#160;</text><text fill="#666666" font-family="'Helvetica Neue'" font-size="12" lengthAdjust="spacing" textLength="60" x="98.11" y="899.235">Meter(Start</text><text fill="#666666" font-family="'Helvetica Neue'" font-size="12" lengthAdjust="spacing" textLength="3.336" x="158.11" y="899.235">&#160;</text><text fill="#666666" font-family="'Helvetica Neue'" font-size="12" lengthAdjust="spacing" textLength="31.116" x="161.446" y="899.235">Meter</text><text fill="#666666" font-family="'Helvetica Neue'" font-size="12" lengthAdjust="spacing" textLength="14.664" x="114.118" y="913.551">ID)</text><polygon fill="#666666" points="357.166,957.411,367.166,961.411,357.166,965.411,361.166,961.411" style="stroke:#666666;stroke-width:1;"/><line style="stroke:#666666;stroke-width:1;" x1="204.562" x2="363.166" y1="961.411" y2="961.411"/><text fill="#666666" font-family="'Helvetica Neue'" font-size="12" font-weight="bold" lengthAdjust="spacing" textLength="140.604" x="216.562" y="942.155">register_meter(meter_id,</text><text fill="#666666" font-family="'Helvetica Neue'" font-size="12" font-weight="bold" lengthAdjust="spacing" textLength="28.224" x="272.752" y="956.807">type)</text><polygon fill="#666666" points="857.774,1000.043,867.774,1004.043,857.774,1008.043,861.774,1004.043" style="stroke:#666666;stroke-width:1;"/><line style="stroke:#666666;stroke-width:1;" x1="379.166" x2="863.774" y1="1004.043" y2="1004.043"/><text fill="#666666" font-family="'Helvetica Neue'" font-size="12" lengthAdjust="spacing" textLength="34.452" x="550.79" y="985.171">Check</text><text fill="#666666" font-family="'Helvetica Neue'" font-size="12" lengthAdjust="spacing" textLength="3.336" x="585.242" y="985.171">&#160;</text><text fill="#666666" font-family="'Helvetica Neue'" font-size="12" lengthAdjust="spacing" textLength="48.228" x="588.578" y="985.171">Authority</text><text fill="#666666" font-family="'Helvetica Neue'" font-size="12" lengthAdjust="spacing" textLength="3.336" x="636.806" y="985.171">&#160;</text><text fill="#666666" font-family="'Helvetica Neue'" font-size="12" lengthAdjust="spacing" textLength="41.556" x="640.142" y="985.171">(Owned</text><text fill="#666666" font-family="'Helvetica Neue'" font-size="12" lengthAdjust="spacing" textLength="3.336" x="681.698" y="985.171">&#160;</text><text fill="#666666" font-family="'Helvetica Neue'" font-size="12" lengthAdjust="spacing" textLength="13.116" x="685.034" y="985.171">by</text><text fill="#666666" font-family="'Helvetica Neue'" font-size="12" lengthAdjust="spacing" textLength="37.548" x="605.696" y="999.487">Signer)</text><polygon fill="#666666" points="938.461,1042.675,948.461,1046.675,938.461,1050.675,942.461,1046.675" style="stroke:#666666;stroke-width:1;"/><line style="stroke:#666666;stroke-width:1;" x1="379.166" x2="944.461" y1="1046.675" y2="1046.675"/><text fill="#666666" font-family="'Helvetica Neue'" font-size="12" lengthAdjust="spacing" textLength="16.224" x="594.4215" y="1027.803">Init</text><text fill="#666666" font-family="'Helvetica Neue'" font-size="12" lengthAdjust="spacing" textLength="3.336" x="610.6455" y="1027.803">&#160;</text><text fill="#666666" font-family="'Helvetica Neue'" font-size="12" lengthAdjust="spacing" textLength="24" x="613.9815" y="1027.803">PDA</text><text fill="#666666" font-family="'Helvetica Neue'" font-size="12" lengthAdjust="spacing" textLength="3.336" x="637.9815" y="1027.803">&#160;</text><text fill="#666666" font-family="'Helvetica Neue'" font-size="12" lengthAdjust="spacing" textLength="93.888" x="641.3175" y="1027.803">seeds=[b"meter",</text><text fill="#666666" font-family="'Helvetica Neue'" font-size="12" lengthAdjust="spacing" textLength="36.432" x="638.4855" y="1042.119">owner,</text><text fill="#666666" font-family="'Helvetica Neue'" font-size="12" lengthAdjust="spacing" textLength="3.336" x="674.9175" y="1042.119">&#160;</text><text fill="#666666" font-family="'Helvetica Neue'" font-size="12" lengthAdjust="spacing" textLength="12.888" x="678.2535" y="1042.119">id]</text><polygon fill="#666666" points="938.461,1070.991,948.461,1074.991,938.461,1078.991,942.461,1074.991" style="stroke:#666666;stroke-width:1;"/><line style="stroke:#666666;stroke-width:1;" x1="379.166" x2="944.461" y1="1074.991" y2="1074.991"/><text fill="#666666" font-family="'Helvetica Neue'" font-size="12" lengthAdjust="spacing" textLength="18" x="613.4295" y="1070.435">Set</text><text fill="#666666" font-family="'Helvetica Neue'" font-size="12" lengthAdjust="spacing" textLength="3.336" x="631.4295" y="1070.435">&#160;</text><text fill="#666666" font-family="'Helvetica Neue'" font-size="12" lengthAdjust="spacing" textLength="34.452" x="634.7655" y="1070.435">Status</text><text fill="#666666" font-family="'Helvetica Neue'" font-size="12" lengthAdjust="spacing" textLength="3.336" x="669.2175" y="1070.435">&#160;</text><text fill="#666666" font-family="'Helvetica Neue'" font-size="12" lengthAdjust="spacing" textLength="7.2" x="672.5535" y="1070.435">=</text><text fill="#666666" font-family="'Helvetica Neue'" font-size="12" lengthAdjust="spacing" textLength="3.336" x="679.7535" y="1070.435">&#160;</text><text fill="#666666" font-family="'Helvetica Neue'" font-size="12" lengthAdjust="spacing" textLength="33.108" x="683.0895" y="1070.435">Active</text><polygon fill="#666666" points="215.562,1099.307,205.562,1103.307,215.562,1107.307,211.562,1103.307" style="stroke:#666666;stroke-width:1;"/><line style="stroke:#666666;stroke-width:1;stroke-dasharray:2,2;" x1="209.562" x2="368.166" y1="1103.307" y2="1103.307"/><text fill="#666666" font-family="'Helvetica Neue'" font-size="12" lengthAdjust="spacing" textLength="45.78" x="263.974" y="1098.751">Success</text><polygon fill="#666666" points="49.338,1127.623,39.338,1131.623,49.338,1135.623,45.338,1131.623" style="stroke:#666666;stroke-width:1;"/><line style="stroke:#666666;stroke-width:1;stroke-dasharray:2,2;" x1="43.338" x2="203.562" y1="1131.623" y2="1131.623"/><text fill="#666666" font-family="'Helvetica Neue'" font-size="12" lengthAdjust="spacing" textLength="36.444" x="71.104" y="1127.067">Device</text><text fill="#666666" font-family="'Helvetica Neue'" font-size="12" lengthAdjust="spacing" textLength="3.336" x="107.548" y="1127.067">&#160;</text><text fill="#666666" font-family="'Helvetica Neue'" font-size="12" lengthAdjust="spacing" textLength="60.912" x="110.884" y="1127.067">Onboarded</text><?plantuml-src fLHHQzim47xthxZvOIIXeIzz2al1Szekh6j7tPMDhHX5EZiYjfH9Sah-_Kvo7EosAun14cBTTtVwlhlFxwJYLICGFgHdf-bPdk7l1XN7yoYo6wcspB0Q11QigTobLkw6rGZn9wnsw2HdS8CDnf6JhaAOJAwC5FTwW-hx3BvPDF0U5hYJ7E5MhJGpGgfoClcbxh2KrfaznQ_q3erYr18kA_qKHOmxRI3-QhHjQZGnC1jgHNGNQYctJ3c8awzBk68EdzW-8EXv23Yse48baGYexd08xLsX3wRZI337LimIvTkYcAPh9XKiFePmkaQ-YL0Hzpt45uQdI3KB4iLHdKKIG1TtwH4I1Ea2_Y7X_1ZyWguN3Ky-7CtdhP27cpCdjOBvF0g7qtFFUtO8eXdvq_lz5a_WMlE07KTUAGA6wyxWyuyKJY4ZiZxQiGY_CEtg9Tkj8Kr4bzl9DgCHcqEllB73XipvhgeSJoP-XdBdTJWAVXm7bJjmdy5IIITP9MqG32oYiFEVgzYNZa-0DMwj3Sdp-7fwXWuonrnZOGw9RuazO4ScQpX7QoE1BsyL-1rApeOQfxhULZI6C88BXQRSGt_2IskRi38lXq4EiiwF7aQaeow0FWOLxUgAN69rOpWUvq9RvcMLL0vpD7p4gKak1T6lTQD8r4D2NrQ_clJr-TIc5N8e8LNAVIMIKOh70JWZVo4yaEwYfRgW9MyH7OVK8BKHVSryoqXf-cTakNQUKxXw8chonAwjXXQ4vcHRvImXYYdtZecUSUt0dcvUQ9EJvlxDC7gJevzsbodwQJHyPneSCdZea2yuq3YpckpVcWokfTg48d_nL0iRqPuTKvQByPlEg4D6-0s3T6IGVt15QyQaMtuOtJuf5B3QGoPBMiJn8ArxLRos1E4Aj06Q2fXs4LvF_NydFRFIyArFK_W3?></g></svg>