<?plantuml 1.2026.0?><svg xmlns="http://www.w3.org/2000/svg" xmlns:xlink="http://www.w3.org/1999/xlink" contentStyleType="text/css" data-diagram-type="SEQUENCE" height="1644px" preserveAspectRatio="none" style="width:1229px;height:1644px;background:#FFFFFF;" version="1.1" viewBox="0 0 1229 1644" width="1229px" zoomAndPan="magnify"><title>&lt;size:20&gt;**GridTokenX - P2P Trading Sequence**&lt;/size&gt;
Order Lifecycle &amp; Trustless Settlement Flow</title><defs/><g><rect fill="#E3F2FD" height="1551.806" rx="4" ry="4" style="stroke:#181818;stroke-width:0.5;" width="110.916" x="217.7619" y="68.514"/><text fill="#000000" font-family="'Helvetica Neue'" font-size="12" font-weight="bold" lengthAdjust="spacing" textLength="86.916" x="229.7619" y="80.562">Frontend Layer</text><rect fill="#FFF3E0" height="1551.806" rx="4" ry="4" style="stroke:#181818;stroke-width:0.5;" width="301.672" x="472.7979" y="68.514"/><text fill="#000000" font-family="'Helvetica Neue'" font-size="12" font-weight="bold" lengthAdjust="spacing" textLength="85.572" x="580.8479" y="80.562">Backend Layer</text><rect fill="#EDE7F6" height="1551.806" rx="4" ry="4" style="stroke:#181818;stroke-width:0.5;" width="310.096" x="825.5079" y="68.514"/><text fill="#000000" font-family="'Helvetica Neue'" font-size="12" font-weight="bold" lengthAdjust="spacing" textLength="106.2" x="927.4559" y="80.562">Solana Blockchain</text><text fill="#000000" font-family="'Helvetica Neue'" font-size="20" font-weight="bold" lengthAdjust="spacing" textLength="348.9" x="439.0219" y="35.08">GridTokenX - P2P Trading Sequence</text><text fill="#000000" font-family="'Helvetica Neue'" font-size="14" font-weight="bold" lengthAdjust="spacing" textLength="292.894" x="467.0249" y="53.476">Order Lifecycle &amp; Trustless Settlement Flow</text><g><title>Energy Buyer</title><rect fill="#000000" fill-opacity="0.00000" height="610.078" width="8" x="40.5" y="175.798"/><line style="stroke:#34495E;stroke-width:0.5;stroke-dasharray:5,5;" x1="44" x2="44" y1="175.798" y2="785.876"/></g><line style="stroke:#34495E;stroke-width:0.5;stroke-dasharray:1,4;" x1="44" x2="44" y1="785.876" y2="828.192"/><g><title>Energy Buyer</title><rect fill="#000000" fill-opacity="0.00000" height="697.496" width="8" x="40.5" y="828.192"/><line style="stroke:#34495E;stroke-width:0.5;stroke-dasharray:5,5;" x1="44" x2="44" y1="828.192" y2="1525.688"/></g><g><title>Energy Seller</title><rect fill="#000000" fill-opacity="0.00000" height="610.078" width="8" x="127.828" y="175.798"/><line style="stroke:#34495E;stroke-width:0.5;stroke-dasharray:5,5;" x1="131.328" x2="131.328" y1="175.798" y2="785.876"/></g><line style="stroke:#34495E;stroke-width:0.5;stroke-dasharray:1,4;" x1="131.328" x2="131.328" y1="785.876" y2="828.192"/><g><title>Energy Seller</title><rect fill="#000000" fill-opacity="0.00000" height="697.496" width="8" x="127.828" y="828.192"/><line style="stroke:#34495E;stroke-width:0.5;stroke-dasharray:5,5;" x1="131.328" x2="131.328" y1="828.192" y2="1525.688"/></g><g><title>Trading App</title><rect fill="#000000" fill-opacity="0.00000" height="610.078" width="8" x="269.7199" y="175.798"/><line style="stroke:#34495E;stroke-width:0.5;stroke-dasharray:5,5;" x1="273.2199" x2="273.2199" y1="175.798" y2="785.876"/></g><line style="stroke:#34495E;stroke-width:0.5;stroke-dasharray:1,4;" x1="273.2199" x2="273.2199" y1="785.876" y2="828.192"/><g><title>Trading App</title><rect fill="#000000" fill-opacity="0.00000" height="697.496" width="8" x="269.7199" y="828.192"/><line style="stroke:#34495E;stroke-width:0.5;stroke-dasharray:5,5;" x1="273.2199" x2="273.2199" y1="828.192" y2="1525.688"/></g><g><title/><rect fill="#BBDEFB" height="514.352" style="stroke:#181818;stroke-width:1;" width="10" x="268.2199" y="263.524"/></g><g><title/><rect fill="#BBDEFB" height="57.304" style="stroke:#181818;stroke-width:1;" width="10" x="268.2199" y="1450.384"/></g><g><title>API Gateway</title><rect fill="#000000" fill-opacity="0.00000" height="610.078" width="8" x="516.8439" y="175.798"/><line style="stroke:#34495E;stroke-width:0.5;stroke-dasharray:5,5;" x1="520.3439" x2="520.3439" y1="175.798" y2="785.876"/></g><line style="stroke:#34495E;stroke-width:0.5;stroke-dasharray:1,4;" x1="520.3439" x2="520.3439" y1="785.876" y2="828.192"/><g><title>API Gateway</title><rect fill="#000000" fill-opacity="0.00000" height="697.496" width="8" x="516.8439" y="828.192"/><line style="stroke:#34495E;stroke-width:0.5;stroke-dasharray:5,5;" x1="520.3439" x2="520.3439" y1="828.192" y2="1525.688"/></g><g><title/><rect fill="#FFE0B2" height="443.068" style="stroke:#181818;stroke-width:1;" width="10" x="515.3439" y="306.156"/></g><g><title/><rect fill="#FFE0B2" height="507.834" style="stroke:#181818;stroke-width:1;" width="10" x="515.3439" y="1012.854"/></g><g><title>Matching Engine</title><rect fill="#000000" fill-opacity="0.00000" height="610.078" width="8" x="711.8679" y="175.798"/><line style="stroke:#34495E;stroke-width:0.5;stroke-dasharray:5,5;" x1="715.3679" x2="715.3679" y1="175.798" y2="785.876"/></g><line style="stroke:#34495E;stroke-width:0.5;stroke-dasharray:1,4;" x1="715.3679" x2="715.3679" y1="785.876" y2="828.192"/><g><title>Matching Engine</title><rect fill="#000000" fill-opacity="0.00000" height="697.496" width="8" x="711.8679" y="828.192"/><line style="stroke:#34495E;stroke-width:0.5;stroke-dasharray:5,5;" x1="715.3679" x2="715.3679" y1="828.192" y2="1525.688"/></g><g><title>Trading Program</title><rect fill="#000000" fill-opacity="0.00000" height="610.078" width="8" x="881.4399" y="175.798"/><line style="stroke:#34495E;stroke-width:0.5;stroke-dasharray:5,5;" x1="884.9399" x2="884.9399" y1="175.798" y2="785.876"/></g><line style="stroke:#34495E;stroke-width:0.5;stroke-dasharray:1,4;" x1="884.9399" x2="884.9399" y1="785.876" y2="828.192"/><g><title>Trading Program</title><rect fill="#000000" fill-opacity="0.00000" height="697.496" width="8" x="881.4399" y="828.192"/><line style="stroke:#34495E;stroke-width:0.5;stroke-dasharray:5,5;" x1="884.9399" x2="884.9399" y1="828.192" y2="1525.688"/></g><g><title/><rect fill="#D1C4E9" height="85.956" style="stroke:#181818;stroke-width:1;" width="10" x="879.9399" y="506.028"/></g><g><title/><rect fill="#D1C4E9" height="263.848" style="stroke:#181818;stroke-width:1;" width="10" x="879.9399" y="1100.58"/></g><g><title>SPL Token</title><rect fill="#000000" fill-opacity="0.00000" height="610.078" width="8" x="1090.2039" y="175.798"/><line style="stroke:#34495E;stroke-width:0.5;stroke-dasharray:5,5;" x1="1093.7039" x2="1093.7039" y1="175.798" y2="785.876"/></g><line style="stroke:#34495E;stroke-width:0.5;stroke-dasharray:1,4;" x1="1093.7039" x2="1093.7039" y1="785.876" y2="828.192"/><g><title>SPL Token</title><rect fill="#000000" fill-opacity="0.00000" height="697.496" width="8" x="1090.2039" y="828.192"/><line style="stroke:#34495E;stroke-width:0.5;stroke-dasharray:5,5;" x1="1093.7039" x2="1093.7039" y1="828.192" y2="1525.688"/></g><g><title/><rect fill="#C5CAE9" height="28.652" style="stroke:#181818;stroke-width:1;" width="10" x="1088.7039" y="534.68"/></g><g><title/><rect fill="#C5CAE9" height="28.652" style="stroke:#181818;stroke-width:1;" width="10" x="1088.7039" y="1192.516"/></g><g><title/><rect fill="#C5CAE9" height="28.652" style="stroke:#181818;stroke-width:1;" width="10" x="1088.7039" y="1249.82"/></g><g><title/><rect fill="#C5CAE9" height="28.652" style="stroke:#181818;stroke-width:1;" width="10" x="1088.7039" y="1307.124"/></g><g><title>PostgreSQL</title><rect fill="#000000" fill-opacity="0.00000" height="610.078" width="8" x="1183.7739" y="175.798"/><line style="stroke:#34495E;stroke-width:0.5;stroke-dasharray:5,5;" x1="1187.2739" x2="1187.2739" y1="175.798" y2="785.876"/></g><line style="stroke:#34495E;stroke-width:0.5;stroke-dasharray:1,4;" x1="1187.2739" x2="1187.2739" y1="785.876" y2="828.192"/><g><title>PostgreSQL</title><rect fill="#000000" fill-opacity="0.00000" height="697.496" width="8" x="1183.7739" y="828.192"/><line style="stroke:#34495E;stroke-width:0.5;stroke-dasharray:5,5;" x1="1187.2739" x2="1187.2739" y1="828.192" y2="1525.688"/></g><g><title/><rect fill="#E1BEE7" height="28.652" style="stroke:#181818;stroke-width:1;" width="10" x="1182.2739" y="334.808"/></g><text fill="#000000" font-family="'Helvetica Neue'" font-size="12" lengthAdjust="spacing" textLength="72" x="5" y="158.926">Energy Buyer</text><text fill="#000000" font-family="'Helvetica Neue'" font-size="12" lengthAdjust="spacing" textLength="61.788" x="10.106" y="173.242">(Consumer)</text><ellipse cx="44" cy="95.666" fill="#27AE60" rx="8" ry="8" style="stroke:#27AE60;stroke-width:0.5;"/><path d="M44,103.666 L44,130.666 M31,111.666 L57,111.666 M44,130.666 L31,145.666 M44,130.666 L57,145.666" fill="none" style="stroke:#27AE60;stroke-width:0.5;"/><text fill="#000000" font-family="'Helvetica Neue'" font-size="12" lengthAdjust="spacing" textLength="70.656" x="93" y="158.926">Energy Seller</text><text fill="#000000" font-family="'Helvetica Neue'" font-size="12" lengthAdjust="spacing" textLength="58.224" x="99.216" y="173.242">(Prosumer)</text><ellipse cx="131.328" cy="95.666" fill="#27AE60" rx="8" ry="8" style="stroke:#27AE60;stroke-width:0.5;"/><path d="M131.328,103.666 L131.328,130.666 M118.328,111.666 L144.328,111.666 M131.328,130.666 L118.328,145.666 M131.328,130.666 L144.328,145.666" fill="none" style="stroke:#27AE60;stroke-width:0.5;"/><rect fill="#2196F3" height="43.304" rx="4" ry="4" style="stroke:#2980B9;stroke-width:0.5;" width="83.984" x="231.2279" y="131.494"/><text fill="#FFFFFF" font-family="'Helvetica Neue'" font-size="12" font-weight="bold" lengthAdjust="spacing" textLength="69.984" x="238.2279" y="150.542">Trading App</text><text fill="#FFFFFF" font-family="'Helvetica Neue'" font-size="12" font-style="italic" font-weight="bold" lengthAdjust="spacing" textLength="39.12" x="253.6599" y="165.194">Next.js</text><rect fill="#FF9800" height="43.304" rx="4" ry="4" style="stroke:#2980B9;stroke-width:0.5;" width="87.092" x="476.7979" y="131.494"/><text fill="#FFFFFF" font-family="'Helvetica Neue'" font-size="12" font-weight="bold" lengthAdjust="spacing" textLength="73.092" x="483.7979" y="150.542">API Gateway</text><text fill="#FFFFFF" font-family="'Helvetica Neue'" font-size="12" font-style="italic" font-weight="bold" lengthAdjust="spacing" textLength="70.668" x="485.0099" y="165.194">Rust / Axum</text><rect fill="#E67E22" height="43.304" rx="4" ry="4" style="stroke:#2980B9;stroke-width:0.5;" width="110.204" x="660.2659" y="131.494"/><text fill="#FFFFFF" font-family="'Helvetica Neue'" font-size="12" font-weight="bold" lengthAdjust="spacing" textLength="96.204" x="667.2659" y="150.542">Matching Engine</text><text fill="#FFFFFF" font-family="'Helvetica Neue'" font-size="12" font-style="italic" font-weight="bold" lengthAdjust="spacing" textLength="62.436" x="684.1499" y="165.194">In-Memory</text><rect fill="#673AB7" height="43.304" rx="4" ry="4" style="stroke:#2980B9;stroke-width:0.5;" width="110.864" x="829.5079" y="131.494"/><text fill="#FFFFFF" font-family="'Helvetica Neue'" font-size="12" font-weight="bold" lengthAdjust="spacing" textLength="96.864" x="836.5079" y="150.542">Trading Program</text><text fill="#FFFFFF" font-family="'Helvetica Neue'" font-size="12" font-style="italic" font-weight="bold" lengthAdjust="spacing" textLength="69.792" x="850.0439" y="165.194">Anchor PDA</text><rect fill="#512DA8" height="43.304" rx="4" ry="4" style="stroke:#2980B9;stroke-width:0.5;" width="75.8" x="1055.8039" y="131.494"/><text fill="#FFFFFF" font-family="'Helvetica Neue'" font-size="12" font-weight="bold" lengthAdjust="spacing" textLength="61.8" x="1062.8039" y="150.542">SPL Token</text><text fill="#FFFFFF" font-family="'Helvetica Neue'" font-size="12" font-style="italic" font-weight="bold" lengthAdjust="spacing" textLength="35.556" x="1075.9259" y="165.194">Vaults</text><text fill="#000000" font-family="'Helvetica Neue'" font-size="12" lengthAdjust="spacing" textLength="65.34" x="1151.6039" y="173.242">PostgreSQL</text><path d="M1169.2739,125.482 C1169.2739,115.482 1187.2739,115.482 1187.2739,115.482 C1187.2739,115.482 1205.2739,115.482 1205.2739,125.482 L1205.2739,151.482 C1205.2739,161.482 1187.2739,161.482 1187.2739,161.482 C1187.2739,161.482 1169.2739,161.482 1169.2739,151.482 L1169.2739,125.482" fill="#F3E5F5" style="stroke:#181818;stroke-width:0.5;"/><path d="M1169.2739,125.482 C1169.2739,135.482 1187.2739,135.482 1187.2739,135.482 C1187.2739,135.482 1205.2739,135.482 1205.2739,125.482" fill="none" style="stroke:#181818;stroke-width:0.5;"/><text fill="#000000" font-family="'Helvetica Neue'" font-size="12" lengthAdjust="spacing" textLength="72" x="5" y="1597.448">Energy Buyer</text><text fill="#000000" font-family="'Helvetica Neue'" font-size="12" lengthAdjust="spacing" textLength="61.788" x="10.106" y="1611.764">(Consumer)</text><ellipse cx="44" cy="1534.188" fill="#27AE60" rx="8" ry="8" style="stroke:#27AE60;stroke-width:0.5;"/><path d="M44,1542.188 L44,1569.188 M31,1550.188 L57,1550.188 M44,1569.188 L31,1584.188 M44,1569.188 L57,1584.188" fill="none" style="stroke:#27AE60;stroke-width:0.5;"/><text fill="#000000" font-family="'Helvetica Neue'" font-size="12" lengthAdjust="spacing" textLength="70.656" x="93" y="1597.448">Energy Seller</text><text fill="#000000" font-family="'Helvetica Neue'" font-size="12" lengthAdjust="spacing" textLength="58.224" x="99.216" y="1611.764">(Prosumer)</text><ellipse cx="131.328" cy="1534.188" fill="#27AE60" rx="8" ry="8" style="stroke:#27AE60;stroke-width:0.5;"/><path d="M131.328,1542.188 L131.328,1569.188 M118.328,1550.188 L144.328,1550.188 M131.328,1569.188 L118.328,1584.188 M131.328,1569.188 L144.328,1584.188" fill="none" style="stroke:#27AE60;stroke-width:0.5;"/><rect fill="#2196F3" height="43.304" rx="4" ry="4" style="stroke:#2980B9;stroke-width:0.5;" width="83.984" x="231.2279" y="1525.688"/><text fill="#FFFFFF" font-family="'Helvetica Neue'" font-size="12" font-weight="bold" lengthAdjust="spacing" textLength="69.984" x="238.2279" y="1544.736">Trading App</text><text fill="#FFFFFF" font-family="'Helvetica Neue'" font-size="12" font-style="italic" font-weight="bold" lengthAdjust="spacing" textLength="39.12" x="253.6599" y="1559.388">Next.js</text><rect fill="#FF9800" height="43.304" rx="4" ry="4" style="stroke:#2980B9;stroke-width:0.5;" width="87.092" x="476.7979" y="1525.688"/><text fill="#FFFFFF" font-family="'Helvetica Neue'" font-size="12" font-weight="bold" lengthAdjust="spacing" textLength="73.092" x="483.7979" y="1544.736">API Gateway</text><text fill="#FFFFFF" font-family="'Helvetica Neue'" font-size="12" font-style="italic" font-weight="bold" lengthAdjust="spacing" textLength="70.668" x="485.0099" y="1559.388">Rust / Axum</text><rect fill="#E67E22" height="43.304" rx="4" ry="4" style="stroke:#2980B9;stroke-width:0.5;" width="110.204" x="660.2659" y="1525.688"/><text fill="#FFFFFF" font-family="'Helvetica Neue'" font-size="12" font-weight="bold" lengthAdjust="spacing" textLength="96.204" x="667.2659" y="1544.736">Matching Engine</text><text fill="#FFFFFF" font-family="'Helvetica Neue'" font-size="12" font-style="italic" font-weight="bold" lengthAdjust="spacing" textLength="62.436" x="684.1499" y="1559.388">In-Memory</text><rect fill="#673AB7" height="43.304" rx="4" ry="4" style="stroke:#2980B9;stroke-width:0.5;" width="110.864" x="829.5079" y="1525.688"/><text fill="#FFFFFF" font-family="'Helvetica Neue'" font-size="12" font-weight="bold" lengthAdjust="spacing" textLength="96.864" x="836.5079" y="1544.736">Trading Program</text><text fill="#FFFFFF" font-family="'Helvetica Neue'" font-size="12" font-style="italic" font-weight="bold" lengthAdjust="spacing" textLength="69.792" x="850.0439" y="1559.388">Anchor PDA</text><rect fill="#512DA8" height="43.304" rx="4" ry="4" style="stroke:#2980B9;stroke-width:0.5;" width="75.8" x="1055.8039" y="1525.688"/><text fill="#FFFFFF" font-family="'Helvetica Neue'" font-size="12" font-weight="bold" lengthAdjust="spacing" textLength="61.8" x="1062.8039" y="1544.736">SPL Token</text><text fill="#FFFFFF" font-family="'Helvetica Neue'" font-size="12" font-style="italic" font-weight="bold" lengthAdjust="spacing" textLength="35.556" x="1075.9259" y="1559.388">Vaults</text><text fill="#000000" font-family="'Helvetica Neue'" font-size="12" lengthAdjust="spacing" textLength="65.34" x="1151.6039" y="1583.448">PostgreSQL</text><path d="M1169.2739,1535.688 C1169.2739,1525.688 1187.2739,1525.688 1187.2739,1525.688 C1187.2739,1525.688 1205.2739,1525.688 1205.2739,1535.688 L1205.2739,1561.688 C1205.2739,1571.688 1187.2739,1571.688 1187.2739,1571.688 C1187.2739,1571.688 1169.2739,1571.688 1169.2739,1561.688 L1169.2739,1535.688" fill="#F3E5F5" style="stroke:#181818;stroke-width:0.5;"/><path d="M1169.2739,1535.688 C1169.2739,1545.688 1187.2739,1545.688 1187.2739,1545.688 C1187.2739,1545.688 1205.2739,1545.688 1205.2739,1535.688" fill="none" style="stroke:#181818;stroke-width:0.5;"/><rect fill="#EEEEEE" height="3" rx="4" ry="4" style="stroke:#EEEEEE;stroke-width:1;" width="1217.9438" x="5" y="205.345"/><line style="stroke:#000000;stroke-width:1;" x1="5" x2="1222.9438" y1="205.345" y2="205.345"/><line style="stroke:#000000;stroke-width:1;" x1="5" x2="1222.9438" y1="208.345" y2="208.345"/><rect fill="#EEEEEE" height="25.094" rx="4" ry="4" style="stroke:#000000;stroke-width:2;" width="273.186" x="477.3789" y="193.798"/><text fill="#000000" font-family="'Helvetica Neue'" font-size="14" font-weight="bold" lengthAdjust="spacing" textLength="255.85" x="483.3789" y="211.854">&#9312; Order Placement &amp; Escrow Locking</text><text fill="#000000" font-family="'Helvetica Neue'" font-size="12" font-weight="bold" lengthAdjust="spacing" textLength="3.336" x="739.2289" y="212.288">&#160;</text><polygon fill="#2C3E50" points="256.2199,259.524,266.2199,263.524,256.2199,267.524,260.2199,263.524" style="stroke:#2C3E50;stroke-width:1;"/><line style="stroke:#2C3E50;stroke-width:1;" x1="44" x2="262.2199" y1="263.524" y2="263.524"/><text fill="#000000" font-family="'Helvetica Neue'" font-size="12" font-weight="bold" lengthAdjust="spacing" textLength="14.664" x="51" y="251.93">[1]</text><text fill="#000000" font-family="'Helvetica Neue'" font-size="12" lengthAdjust="spacing" textLength="88.008" x="69.664" y="244.652">Place Buy Order</text><text fill="#000000" font-family="'Helvetica Neue'" font-size="12" lengthAdjust="spacing" textLength="116.244" x="69.664" y="258.968">(Price, Amount, Zone)</text><polygon fill="#2C3E50" points="503.3439,302.156,513.3439,306.156,503.3439,310.156,507.3439,306.156" style="stroke:#2C3E50;stroke-width:1;"/><line style="stroke:#2C3E50;stroke-width:1;" x1="278.2199" x2="509.3439" y1="306.156" y2="306.156"/><text fill="#000000" font-family="'Helvetica Neue'" font-size="12" font-weight="bold" lengthAdjust="spacing" textLength="14.664" x="285.2199" y="294.562">[2]</text><text fill="#000000" font-family="'Helvetica Neue'" font-size="12" lengthAdjust="spacing" textLength="135.108" x="303.8839" y="287.284">POST /api/trading/orders</text><text fill="#000000" font-family="'Helvetica Neue'" font-size="12" lengthAdjust="spacing" textLength="79.344" x="303.8839" y="301.6">{type: BUY, ...}</text><polygon fill="#2C3E50" points="1170.2739,330.808,1180.2739,334.808,1170.2739,338.808,1174.2739,334.808" style="stroke:#2C3E50;stroke-width:1;"/><line style="stroke:#2C3E50;stroke-width:1;" x1="525.3439" x2="1176.2739" y1="334.808" y2="334.808"/><text fill="#000000" font-family="'Helvetica Neue'" font-size="12" font-weight="bold" lengthAdjust="spacing" textLength="14.664" x="532.3439" y="330.204">[3]</text><text fill="#000000" font-family="'Helvetica Neue'" font-size="12" lengthAdjust="spacing" textLength="181.764" x="551.0079" y="330.084">INSERT orders (status: PENDING)</text><polygon fill="#2C3E50" points="536.3439,359.46,526.3439,363.46,536.3439,367.46,532.3439,363.46" style="stroke:#2C3E50;stroke-width:1;"/><line style="stroke:#2C3E50;stroke-width:1;stroke-dasharray:2,2;" x1="530.3439" x2="1181.2739" y1="363.46" y2="363.46"/><text fill="#000000" font-family="'Helvetica Neue'" font-size="12" font-weight="bold" lengthAdjust="spacing" textLength="14.664" x="542.3439" y="358.856">[4]</text><text fill="#000000" font-family="'Helvetica Neue'" font-size="12" lengthAdjust="spacing" textLength="44.22" x="561.0079" y="358.736">order_id</text><polygon fill="#2C3E50" points="289.2199,402.092,279.2199,406.092,289.2199,410.092,285.2199,406.092" style="stroke:#2C3E50;stroke-width:1;"/><line style="stroke:#2C3E50;stroke-width:1;stroke-dasharray:2,2;" x1="283.2199" x2="514.3439" y1="406.092" y2="406.092"/><text fill="#000000" font-family="'Helvetica Neue'" font-size="12" font-weight="bold" lengthAdjust="spacing" textLength="14.664" x="295.2199" y="394.498">[5]</text><text fill="#000000" font-family="'Helvetica Neue'" font-size="12" lengthAdjust="spacing" textLength="87.768" x="313.8839" y="387.22">Escrow Request</text><text fill="#000000" font-family="'Helvetica Neue'" font-size="12" lengthAdjust="spacing" textLength="107.592" x="313.8839" y="401.536">{vault_pda, amount}</text><polygon fill="#2C3E50" points="55,430.744,45,434.744,55,438.744,51,434.744" style="stroke:#2C3E50;stroke-width:1;"/><line style="stroke:#2C3E50;stroke-width:1;" x1="49" x2="267.2199" y1="434.744" y2="434.744"/><text fill="#000000" font-family="'Helvetica Neue'" font-size="12" font-weight="bold" lengthAdjust="spacing" textLength="14.664" x="61" y="430.14">[6]</text><text fill="#000000" font-family="'Helvetica Neue'" font-size="12" lengthAdjust="spacing" textLength="133.32" x="79.664" y="430.02">Sign Escrow Transaction</text><polygon fill="#2C3E50" points="256.2199,459.396,266.2199,463.396,256.2199,467.396,260.2199,463.396" style="stroke:#2C3E50;stroke-width:1;"/><line style="stroke:#2C3E50;stroke-width:1;" x1="44" x2="262.2199" y1="463.396" y2="463.396"/><text fill="#000000" font-family="'Helvetica Neue'" font-size="12" font-weight="bold" lengthAdjust="spacing" textLength="14.664" x="51" y="458.792">[7]</text><text fill="#000000" font-family="'Helvetica Neue'" font-size="12" lengthAdjust="spacing" textLength="54" x="69.664" y="458.672">Signed Tx</text><polygon fill="#2C3E50" points="867.9399,502.028,877.9399,506.028,867.9399,510.028,871.9399,506.028" style="stroke:#2C3E50;stroke-width:1;"/><line style="stroke:#2C3E50;stroke-width:1;" x1="278.2199" x2="873.9399" y1="506.028" y2="506.028"/><text fill="#000000" font-family="'Helvetica Neue'" font-size="12" font-weight="bold" lengthAdjust="spacing" textLength="14.664" x="285.2199" y="494.434">[8]</text><text fill="#000000" font-family="'Helvetica Neue'" font-size="12" lengthAdjust="spacing" textLength="99.804" x="303.8839" y="487.156">invoke: lock_funds</text><text fill="#000000" font-family="'Helvetica Neue'" font-size="12" lengthAdjust="spacing" textLength="99.576" x="303.8839" y="501.472">{amount, order_id}</text><polygon fill="#2C3E50" points="1076.7039,530.68,1086.7039,534.68,1076.7039,538.68,1080.7039,534.68" style="stroke:#2C3E50;stroke-width:1;"/><line style="stroke:#2C3E50;stroke-width:1;" x1="889.9399" x2="1082.7039" y1="534.68" y2="534.68"/><text fill="#000000" font-family="'Helvetica Neue'" font-size="12" font-weight="bold" lengthAdjust="spacing" textLength="14.664" x="896.9399" y="530.076">[9]</text><text fill="#000000" font-family="'Helvetica Neue'" font-size="12" lengthAdjust="spacing" textLength="125.112" x="915.6039" y="529.956">Transfer USDC to Vault</text><polygon fill="#2C3E50" points="900.9399,559.332,890.9399,563.332,900.9399,567.332,896.9399,563.332" style="stroke:#2C3E50;stroke-width:1;"/><line style="stroke:#2C3E50;stroke-width:1;stroke-dasharray:2,2;" x1="894.9399" x2="1087.7039" y1="563.332" y2="563.332"/><text fill="#000000" font-family="'Helvetica Neue'" font-size="12" font-weight="bold" lengthAdjust="spacing" textLength="21.336" x="906.9399" y="558.728">[10]</text><text fill="#000000" font-family="'Helvetica Neue'" font-size="12" lengthAdjust="spacing" textLength="45.78" x="932.2759" y="558.608">Success</text><polygon fill="#2C3E50" points="289.2199,587.984,279.2199,591.984,289.2199,595.984,285.2199,591.984" style="stroke:#2C3E50;stroke-width:1;"/><line style="stroke:#2C3E50;stroke-width:1;stroke-dasharray:2,2;" x1="283.2199" x2="878.9399" y1="591.984" y2="591.984"/><text fill="#000000" font-family="'Helvetica Neue'" font-size="12" font-weight="bold" lengthAdjust="spacing" textLength="21.336" x="295.2199" y="587.38">[11]</text><text fill="#000000" font-family="'Helvetica Neue'" font-size="12" lengthAdjust="spacing" textLength="67.776" x="320.5559" y="587.26">Tx Signature</text><polygon fill="#2C3E50" points="503.3439,630.616,513.3439,634.616,503.3439,638.616,507.3439,634.616" style="stroke:#2C3E50;stroke-width:1;"/><line style="stroke:#2C3E50;stroke-width:1;" x1="278.2199" x2="509.3439" y1="634.616" y2="634.616"/><text fill="#000000" font-family="'Helvetica Neue'" font-size="12" font-weight="bold" lengthAdjust="spacing" textLength="21.336" x="285.2199" y="623.022">[12]</text><text fill="#000000" font-family="'Helvetica Neue'" font-size="12" lengthAdjust="spacing" textLength="185.988" x="310.5559" y="615.744">POST /api/trading/confirm_escrow</text><text fill="#000000" font-family="'Helvetica Neue'" font-size="12" lengthAdjust="spacing" textLength="39.54" x="310.5559" y="630.06">{tx_sig}</text><polygon fill="#2C3E50" points="1175.2739,659.268,1185.2739,663.268,1175.2739,667.268,1179.2739,663.268" style="stroke:#2C3E50;stroke-width:1;"/><line style="stroke:#2C3E50;stroke-width:1;" x1="525.3439" x2="1181.2739" y1="663.268" y2="663.268"/><text fill="#000000" font-family="'Helvetica Neue'" font-size="12" font-weight="bold" lengthAdjust="spacing" textLength="21.336" x="532.3439" y="658.664">[13]</text><text fill="#000000" font-family="'Helvetica Neue'" font-size="12" lengthAdjust="spacing" textLength="166.452" x="557.6799" y="658.544">UPDATE orders (status: OPEN)</text><polygon fill="#2C3E50" points="703.3679,687.92,713.3679,691.92,703.3679,695.92,707.3679,691.92" style="stroke:#2C3E50;stroke-width:1;"/><line style="stroke:#2C3E50;stroke-width:1;" x1="525.3439" x2="709.3679" y1="691.92" y2="691.92"/><text fill="#000000" font-family="'Helvetica Neue'" font-size="12" font-weight="bold" lengthAdjust="spacing" textLength="21.336" x="532.3439" y="687.316">[14]</text><text fill="#000000" font-family="'Helvetica Neue'" font-size="12" lengthAdjust="spacing" textLength="101.58" x="557.6799" y="687.196">Add Order to Book</text><polygon fill="#2C3E50" points="536.3439,716.572,526.3439,720.572,536.3439,724.572,532.3439,720.572" style="stroke:#2C3E50;stroke-width:1;"/><line style="stroke:#2C3E50;stroke-width:1;stroke-dasharray:2,2;" x1="530.3439" x2="714.3679" y1="720.572" y2="720.572"/><text fill="#000000" font-family="'Helvetica Neue'" font-size="12" font-weight="bold" lengthAdjust="spacing" textLength="21.336" x="542.3439" y="715.968">[15]</text><text fill="#000000" font-family="'Helvetica Neue'" font-size="12" lengthAdjust="spacing" textLength="35.568" x="567.6799" y="715.848">Added</text><polygon fill="#2C3E50" points="289.2199,745.224,279.2199,749.224,289.2199,753.224,285.2199,749.224" style="stroke:#2C3E50;stroke-width:1;"/><line style="stroke:#2C3E50;stroke-width:1;stroke-dasharray:2,2;" x1="283.2199" x2="514.3439" y1="749.224" y2="749.224"/><text fill="#000000" font-family="'Helvetica Neue'" font-size="12" font-weight="bold" lengthAdjust="spacing" textLength="21.336" x="295.2199" y="744.62">[16]</text><text fill="#000000" font-family="'Helvetica Neue'" font-size="12" lengthAdjust="spacing" textLength="67.116" x="320.5559" y="744.5">Order Active</text><polygon fill="#2C3E50" points="55,773.876,45,777.876,55,781.876,51,777.876" style="stroke:#2C3E50;stroke-width:1;"/><line style="stroke:#2C3E50;stroke-width:1;stroke-dasharray:2,2;" x1="49" x2="267.2199" y1="777.876" y2="777.876"/><text fill="#000000" font-family="'Helvetica Neue'" font-size="12" font-weight="bold" lengthAdjust="spacing" textLength="21.336" x="61" y="773.272">[17]</text><text fill="#000000" font-family="'Helvetica Neue'" font-size="12" lengthAdjust="spacing" textLength="141.564" x="86.336" y="773.152">Order Placed Successfully</text><text fill="#000000" font-family="'Helvetica Neue'" font-size="12" lengthAdjust="spacing" textLength="280.428" x="475.4229" y="811.636">Similarly for Seller (Energy Tokens locked in Escrow)</text><rect fill="#EEEEEE" height="3" rx="4" ry="4" style="stroke:#EEEEEE;stroke-width:1;" width="1217.9438" x="5" y="849.739"/><line style="stroke:#000000;stroke-width:1;" x1="5" x2="1222.9438" y1="849.739" y2="849.739"/><line style="stroke:#000000;stroke-width:1;" x1="5" x2="1222.9438" y1="852.739" y2="852.739"/><rect fill="#EEEEEE" height="25.094" rx="4" ry="4" style="stroke:#000000;stroke-width:2;" width="224.704" x="501.6199" y="838.192"/><text fill="#000000" font-family="'Helvetica Neue'" font-size="14" font-weight="bold" lengthAdjust="spacing" textLength="207.368" x="507.6199" y="856.248">&#9313; High-Performance Matching</text><text fill="#000000" font-family="'Helvetica Neue'" font-size="12" font-weight="bold" lengthAdjust="spacing" textLength="3.336" x="714.9879" y="856.682">&#160;</text><path d="M607.8839,882.286 L607.8839,927.286 A4,4 0 0 0 611.8839,931.286 L817.8839,931.286 A4,4 0 0 0 821.8839,927.286 L821.8839,888.286 L811.8839,878.286 L611.8839,878.286 A4,4 0 0 0 607.8839,882.286" fill="#FFF9C4" style="stroke:#F9A825;stroke-width:0.5;"/><path d="M811.8839,878.286 L811.8839,886.286 A2,2 0 0 0 813.8839,888.286 L821.8839,888.286 L811.8839,878.286" fill="#FFF9C4" style="stroke:#F9A825;stroke-width:0.5;"/><text fill="#000000" font-family="'Helvetica Neue'" font-size="12" font-weight="bold" lengthAdjust="spacing" textLength="133.116" x="613.8839" y="895.334">Landed Cost Matching:</text><text fill="#000000" font-family="'Helvetica Neue'" font-size="12" lengthAdjust="spacing" textLength="110.688" x="613.8839" y="909.698">Sorts candidates by:</text><text fill="#000000" font-family="'Helvetica Neue'" font-size="12" lengthAdjust="spacing" textLength="193.968" x="613.8839" y="924.014">Base Price + Zonal Loss + Wheeling</text><line style="stroke:#2C3E50;stroke-width:1;" x1="715.3679" x2="757.3679" y1="957.222" y2="957.222"/><line style="stroke:#2C3E50;stroke-width:1;" x1="757.3679" x2="757.3679" y1="957.222" y2="970.222"/><line style="stroke:#2C3E50;stroke-width:1;" x1="716.3679" x2="757.3679" y1="970.222" y2="970.222"/><polygon fill="#2C3E50" points="726.3679,966.222,716.3679,970.222,726.3679,974.222,722.3679,970.222" style="stroke:#2C3E50;stroke-width:1;"/><text fill="#000000" font-family="'Helvetica Neue'" font-size="12" font-weight="bold" lengthAdjust="spacing" textLength="21.336" x="722.3679" y="952.618">[18]</text><text fill="#000000" font-family="'Helvetica Neue'" font-size="12" lengthAdjust="spacing" textLength="130.236" x="747.7039" y="952.498">Execute Matching Cycle</text><polygon fill="#2C3E50" points="536.3439,1008.854,526.3439,1012.854,536.3439,1016.854,532.3439,1012.854" style="stroke:#2C3E50;stroke-width:1;"/><line style="stroke:#2C3E50;stroke-width:1;" x1="530.3439" x2="714.3679" y1="1012.854" y2="1012.854"/><text fill="#000000" font-family="'Helvetica Neue'" font-size="12" font-weight="bold" lengthAdjust="spacing" textLength="21.336" x="542.3439" y="1001.26">[19]</text><text fill="#000000" font-family="'Helvetica Neue'" font-size="12" lengthAdjust="spacing" textLength="74.472" x="567.6799" y="993.982">Match Found!</text><text fill="#000000" font-family="'Helvetica Neue'" font-size="12" lengthAdjust="spacing" textLength="140.688" x="567.6799" y="1008.298">{buy_id, sell_id, qty, price}</text><rect fill="#EEEEEE" height="3" rx="4" ry="4" style="stroke:#EEEEEE;stroke-width:1;" width="1217.9438" x="5" y="1042.401"/><line style="stroke:#000000;stroke-width:1;" x1="5" x2="1222.9438" y1="1042.401" y2="1042.401"/><line style="stroke:#000000;stroke-width:1;" x1="5" x2="1222.9438" y1="1045.401" y2="1045.401"/><rect fill="#EEEEEE" height="25.094" rx="4" ry="4" style="stroke:#000000;stroke-width:2;" width="237.374" x="495.2849" y="1030.854"/><text fill="#000000" font-family="'Helvetica Neue'" font-size="14" font-weight="bold" lengthAdjust="spacing" textLength="220.038" x="501.2849" y="1048.91">&#9314; Atomic Blockchain Settlement</text><text fill="#000000" font-family="'Helvetica Neue'" font-size="12" font-weight="bold" lengthAdjust="spacing" textLength="3.336" x="721.3229" y="1049.344">&#160;</text><polygon fill="#2C3E50" points="867.9399,1096.58,877.9399,1100.58,867.9399,1104.58,871.9399,1100.58" style="stroke:#2C3E50;stroke-width:1;"/><line style="stroke:#2C3E50;stroke-width:1;" x1="525.3439" x2="873.9399" y1="1100.58" y2="1100.58"/><text fill="#000000" font-family="'Helvetica Neue'" font-size="12" font-weight="bold" lengthAdjust="spacing" textLength="21.336" x="532.3439" y="1088.986">[20]</text><text fill="#000000" font-family="'Helvetica Neue'" font-size="12" lengthAdjust="spacing" textLength="110.256" x="557.6799" y="1081.708">invoke: settle_match</text><text fill="#000000" font-family="'Helvetica Neue'" font-size="12" lengthAdjust="spacing" textLength="121.104" x="557.6799" y="1096.024">{buy_order, sell_order}</text><path d="M790.7879,1117.58 L790.7879,1162.58 A4,4 0 0 0 794.7879,1166.58 L974.7879,1166.58 A4,4 0 0 0 978.7879,1162.58 L978.7879,1123.58 L968.7879,1113.58 L794.7879,1113.58 A4,4 0 0 0 790.7879,1117.58" fill="#FFF9C4" style="stroke:#F9A825;stroke-width:0.5;"/><path d="M968.7879,1113.58 L968.7879,1121.58 A2,2 0 0 0 970.7879,1123.58 L978.7879,1123.58 L968.7879,1113.58" fill="#FFF9C4" style="stroke:#F9A825;stroke-width:0.5;"/><text fill="#000000" font-family="'Helvetica Neue'" font-size="12" font-weight="bold" lengthAdjust="spacing" textLength="167.304" x="796.7879" y="1130.628">Atomic Execution Guarantee:</text><text fill="#000000" font-family="'Helvetica Neue'" font-size="12" lengthAdjust="spacing" textLength="156.468" x="796.7879" y="1144.992">All transfers must succeed or</text><text fill="#000000" font-family="'Helvetica Neue'" font-size="12" lengthAdjust="spacing" textLength="146.7" x="796.7879" y="1159.308">the entire matching reverts.</text><polygon fill="#2C3E50" points="1076.7039,1188.516,1086.7039,1192.516,1076.7039,1196.516,1080.7039,1192.516" style="stroke:#2C3E50;stroke-width:1;"/><line style="stroke:#2C3E50;stroke-width:1;" x1="889.9399" x2="1082.7039" y1="1192.516" y2="1192.516"/><text fill="#000000" font-family="'Helvetica Neue'" font-size="12" font-weight="bold" lengthAdjust="spacing" textLength="21.336" x="896.9399" y="1187.912">[21]</text><text fill="#000000" font-family="'Helvetica Neue'" font-size="12" lengthAdjust="spacing" textLength="145.548" x="922.2759" y="1187.792">CPI: Transfer GXT to Buyer</text><polygon fill="#2C3E50" points="900.9399,1217.168,890.9399,1221.168,900.9399,1225.168,896.9399,1221.168" style="stroke:#2C3E50;stroke-width:1;"/><line style="stroke:#2C3E50;stroke-width:1;stroke-dasharray:2,2;" x1="894.9399" x2="1087.7039" y1="1221.168" y2="1221.168"/><text fill="#000000" font-family="'Helvetica Neue'" font-size="12" font-weight="bold" lengthAdjust="spacing" textLength="21.336" x="906.9399" y="1216.564">[22]</text><text fill="#000000" font-family="'Helvetica Neue'" font-size="12" lengthAdjust="spacing" textLength="17.124" x="932.2759" y="1216.444">OK</text><polygon fill="#2C3E50" points="1076.7039,1245.82,1086.7039,1249.82,1076.7039,1253.82,1080.7039,1249.82" style="stroke:#2C3E50;stroke-width:1;"/><line style="stroke:#2C3E50;stroke-width:1;" x1="889.9399" x2="1082.7039" y1="1249.82" y2="1249.82"/><text fill="#000000" font-family="'Helvetica Neue'" font-size="12" font-weight="bold" lengthAdjust="spacing" textLength="21.336" x="896.9399" y="1245.216">[23]</text><text fill="#000000" font-family="'Helvetica Neue'" font-size="12" lengthAdjust="spacing" textLength="154.428" x="922.2759" y="1245.096">CPI: Transfer USDC to Seller</text><polygon fill="#2C3E50" points="900.9399,1274.472,890.9399,1278.472,900.9399,1282.472,896.9399,1278.472" style="stroke:#2C3E50;stroke-width:1;"/><line style="stroke:#2C3E50;stroke-width:1;stroke-dasharray:2,2;" x1="894.9399" x2="1087.7039" y1="1278.472" y2="1278.472"/><text fill="#000000" font-family="'Helvetica Neue'" font-size="12" font-weight="bold" lengthAdjust="spacing" textLength="21.336" x="906.9399" y="1273.868">[24]</text><text fill="#000000" font-family="'Helvetica Neue'" font-size="12" lengthAdjust="spacing" textLength="17.124" x="932.2759" y="1273.748">OK</text><polygon fill="#2C3E50" points="1076.7039,1303.124,1086.7039,1307.124,1076.7039,1311.124,1080.7039,1307.124" style="stroke:#2C3E50;stroke-width:1;"/><line style="stroke:#2C3E50;stroke-width:1;" x1="889.9399" x2="1082.7039" y1="1307.124" y2="1307.124"/><text fill="#000000" font-family="'Helvetica Neue'" font-size="12" font-weight="bold" lengthAdjust="spacing" textLength="21.336" x="896.9399" y="1302.52">[25]</text><text fill="#000000" font-family="'Helvetica Neue'" font-size="12" lengthAdjust="spacing" textLength="141.552" x="922.2759" y="1302.4">CPI: Collect Platform Fees</text><polygon fill="#2C3E50" points="900.9399,1331.776,890.9399,1335.776,900.9399,1339.776,896.9399,1335.776" style="stroke:#2C3E50;stroke-width:1;"/><line style="stroke:#2C3E50;stroke-width:1;stroke-dasharray:2,2;" x1="894.9399" x2="1087.7039" y1="1335.776" y2="1335.776"/><text fill="#000000" font-family="'Helvetica Neue'" font-size="12" font-weight="bold" lengthAdjust="spacing" textLength="21.336" x="906.9399" y="1331.172">[26]</text><text fill="#000000" font-family="'Helvetica Neue'" font-size="12" lengthAdjust="spacing" textLength="17.124" x="932.2759" y="1331.052">OK</text><polygon fill="#2C3E50" points="536.3439,1360.428,526.3439,1364.428,536.3439,1368.428,532.3439,1364.428" style="stroke:#2C3E50;stroke-width:1;"/><line style="stroke:#2C3E50;stroke-width:1;stroke-dasharray:2,2;" x1="530.3439" x2="878.9399" y1="1364.428" y2="1364.428"/><text fill="#000000" font-family="'Helvetica Neue'" font-size="12" font-weight="bold" lengthAdjust="spacing" textLength="21.336" x="542.3439" y="1359.824">[27]</text><text fill="#000000" font-family="'Helvetica Neue'" font-size="12" lengthAdjust="spacing" textLength="112.692" x="567.6799" y="1359.704">Settlement Signature</text><polygon fill="#2C3E50" points="1175.2739,1389.08,1185.2739,1393.08,1175.2739,1397.08,1179.2739,1393.08" style="stroke:#2C3E50;stroke-width:1;"/><line style="stroke:#2C3E50;stroke-width:1;" x1="525.3439" x2="1181.2739" y1="1393.08" y2="1393.08"/><text fill="#000000" font-family="'Helvetica Neue'" font-size="12" font-weight="bold" lengthAdjust="spacing" textLength="21.336" x="532.3439" y="1388.476">[28]</text><text fill="#000000" font-family="'Helvetica Neue'" font-size="12" lengthAdjust="spacing" textLength="184.896" x="557.6799" y="1388.356">UPDATE orders (status: SETTLED)</text><polygon fill="#2C3E50" points="1175.2739,1417.732,1185.2739,1421.732,1175.2739,1425.732,1179.2739,1421.732" style="stroke:#2C3E50;stroke-width:1;"/><line style="stroke:#2C3E50;stroke-width:1;" x1="525.3439" x2="1181.2739" y1="1421.732" y2="1421.732"/><text fill="#000000" font-family="'Helvetica Neue'" font-size="12" font-weight="bold" lengthAdjust="spacing" textLength="21.336" x="532.3439" y="1417.128">[29]</text><text fill="#000000" font-family="'Helvetica Neue'" font-size="12" lengthAdjust="spacing" textLength="115.104" x="557.6799" y="1417.008">INSERT trade_history</text><polygon fill="#2C3E50" points="289.2199,1446.384,279.2199,1450.384,289.2199,1454.384,285.2199,1450.384" style="stroke:#2C3E50;stroke-width:1;"/><line style="stroke:#2C3E50;stroke-width:1;stroke-dasharray:2,2;" x1="283.2199" x2="514.3439" y1="1450.384" y2="1450.384"/><text fill="#000000" font-family="'Helvetica Neue'" font-size="12" font-weight="bold" lengthAdjust="spacing" textLength="21.336" x="295.2199" y="1445.78">[30]</text><text fill="#000000" font-family="'Helvetica Neue'" font-size="12" lengthAdjust="spacing" textLength="187.788" x="320.5559" y="1445.66">Real-time Notification (WebSocket)</text><polygon fill="#2C3E50" points="55,1475.036,45,1479.036,55,1483.036,51,1479.036" style="stroke:#2C3E50;stroke-width:1;"/><line style="stroke:#2C3E50;stroke-width:1;stroke-dasharray:2,2;" x1="49" x2="267.2199" y1="1479.036" y2="1479.036"/><text fill="#000000" font-family="'Helvetica Neue'" font-size="12" font-weight="bold" lengthAdjust="spacing" textLength="21.336" x="61" y="1474.432">[31]</text><text fill="#000000" font-family="'Helvetica Neue'" font-size="12" lengthAdjust="spacing" textLength="120.6758" x="86.336" y="1474.312">&#128276; Energy Purchased!</text><polygon fill="#2C3E50" points="142.328,1503.688,132.328,1507.688,142.328,1511.688,138.328,1507.688" style="stroke:#2C3E50;stroke-width:1;"/><line style="stroke:#2C3E50;stroke-width:1;stroke-dasharray:2,2;" x1="136.328" x2="267.2199" y1="1507.688" y2="1507.688"/><text fill="#000000" font-family="'Helvetica Neue'" font-size="12" font-weight="bold" lengthAdjust="spacing" textLength="21.336" x="148.328" y="1503.084">[32]</text><text fill="#000000" font-family="'Helvetica Neue'" font-size="12" lengthAdjust="spacing" textLength="87.5559" x="173.664" y="1502.964">&#128276; Energy Sold!</text><text fill="#888888" font-family="'Helvetica Neue'" font-size="10" lengthAdjust="spacing" textLength="209.67" x="508.6369" y="1634.12">GridTokenX v2.0 | P2P Trading Lifecycle | 2026</text><?plantuml-src jLZRKjj847tNLtISgWquW6sPcrs4AbcMm1LVj9PpsInRr5WQsreaZIED02VX8xOgxtlvjFs2_OJj6KbODh19rG8l24rtJ_VfxjCjdiqZCWq8SCe-0OyIgYWluDKZ_g2vayXpH-o2XkzX6opLWb54N2-SWaq_9ZHqABGzCer8WB8wYoZqI7H1EVIeCoEXvyHD64GkZS3oYKC36l8jC68dObTRG48NDCu2pq5hdFlo6EsyfL7iiR09jPtgOqUaS0ylWgFO-qIRQlMuNFvcXENoKKM87v-5QIXTRqATXODcVa3X94Q3SLm80KoVNObSlFNYXFY8IpZnfab4E4Qbn1TUE2U86BXqGXAVcopaVH9GA9rI_v9opo7GfmajtIzgeojGKmk74Kj25y4FqRV3mljuHbns9KAP43_6wYWSvTdxh03-Q14cH6S-Y-2vgjUDlQfyBGBjUY5jCH5tTbxVtMti6QldnBcOPbv86KCtgsPDobWameYyEGdvYXcrSLXjDUw8h5kgxpOEswrrCO53Ad0rypYzxzZc2qpGcFbk6g73MRJgm85cx5SBX-jNguQk7wH1dE3x-Hq1yz1ic9foKmGsP3m7zQwyQJRqtVIiw8dPq0xLFM7dHJ6AM272BoWPcDZf0bh9WaPduGQMKvm4DDei0OdJjxVHh6hOrFUbYXMnWahw-bP76RDhA9aHWaQn8xi43POmXtLJDTlIs_dIAIZbxQ7DvsTXfTAdrtpdrxXIaQPD0ytM6ljcNH6sq79cNe1Hj8vOr8tgNUkQrO4JmkaLMGZhG-mkg81sdGJP3K80jR5wxj7k4UxCX7D6ECMw51OwuNQF1YnQPFezzD3OFp1KTSr3c_aa9D3ocNE1tEM50eEsSM3kFum1uYguJzoZXSuCeRVQMkveNpyT3E7v_a5TQntSjM5RNP2y8xJVYkxEGHGdp_TgQbixNFhe4ax694QMi5ZCfn6rV-nAwNOByS2MDVUUWFwjKyqse8OaFcmRGx2wccxqZFu8cS-mzU7W7NG7-kjE_-InhtxrAkFesYvozD-__R4-HeG7Sev05nE6oRYbQH0qJnBEmYGOeqhfQ7pyS_MNeyhukAGeQRzi7ujIRQRcH0-bvcMhU0xT0Yt0niLPzO65T5EqbNU9LIdhkzLg6sPBmKUq8ieHpGpi4LJ8tAlmj38gih_Zi_0pNynf4rflVjg2dPsTcwMfh92DQajL5F47MiDSDg7JjutX258Bi15pmXCSevRHRoFG1MT4verQop0E57pSllL6QfvxhkBIWcnsIHvv1jvG38AOewENeWJFvox1mIo3lyb2J15hWkrDmrmD6o2CXN4SQAk82YdgmkWw1oXjWoPuuILMUnD4VvrFa1K5EYI3ENUvY4_MF-sQlciqbEnFj2ZQevbwCC6BtzXj7JW3sK9BTTb4-fwkeQvutYxwOYUEWpEx213AtDwHnpAwbk4W_X4jogPooZTAm15ZFmhEgOHCbCBrUUnDRrQI_GO9OsJSIVO0ixsP2_Q4BvhhPYs0iROOkr3mzJBdU4pTrGodqffmUjLxgoCzBwIsq5jk3iuayVr5KSyq50LB6249F9z4_W8cI7ZPCDd8Hevaj5Wc6KrvUS5iYk9_CdvIcz3JHlefjWVImi0QTNgT3zgeC-W_DItz2QVUTBPjqGYn28ZOgF8PjCf7SYzWbuXKJ-nEvN8Njrz4I4SolrLfbijuPhE8n-3WkOUaJsCOBvgAM2UG_2KxmKj1IxXOTXdkdI_XtOnI7zNbi10NAR8sii8nhgcJyALVe8lLDPD8YqSUWIbMbMTOf-DaWQsuXKkYxyk7Zton1NDnzKFyzKI9hMDXZmQzZWwsCHfrvUXvwfJ-bN-JB3U1mcw_cjMiGUzmN2pbpmE1QmQexF0CK_dyCDKLYYLZ6b4mcLTfEf5tuIJ1ZHDtDfgMZURx-16Oac8CWLYSOj79M6GimdC-eu01UFYD5kIb456yXCSxXSfPvrdTwXJ8zkJzIFAFu8tlvDh1wtMQ_SOTEQ6dpFB8j-3AxLE72wxZecN1f3J-_tVSjbBXA_0_HyTtp82qvDkRzoq7OiRGyvaNuxg_MANz8IN-DlVmUxBFk3V1hqbPBHllwDWMhCmVNcSA4-6Vtxz-XOpJhIJ2DeYf-ooNoaX_LGmNQ9HO7HXhOmTxrsHOPf4oaR-A_rwuL7Ugy6Nb2tpveVq5rAgw_oy0?></g></svg>