<?plantuml 1.2026.0?><svg xmlns="http://www.w3.org/2000/svg" xmlns:xlink="http://www.w3.org/1999/xlink" contentStyleType="text/css" data-diagram-type="SEQUENCE" height="1008px" preserveAspectRatio="none" style="width:971px;height:1008px;background:#FFFFFF;" version="1.1" viewBox="0 0 971 1008" width="971px" zoomAndPan="magnify"><title>**GridTokenX: Governance &amp; Admin Ops**
DAO Management &amp; Emergency Controls</title><defs/><g><text fill="#000000" font-family="'Helvetica Neue'" font-size="14" font-weight="bold" lengthAdjust="spacing" textLength="258.468" x="354.919" y="29.056">GridTokenX: Governance &amp; Admin Ops</text><text fill="#000000" font-family="'Helvetica Neue'" font-size="14" font-weight="bold" lengthAdjust="spacing" textLength="276.346" x="345.98" y="46.15">DAO Management &amp; Emergency Controls</text><g><title>DAO Admin</title><rect fill="#000000" fill-opacity="0.00000" height="863.679" width="8" x="41.334" y="137.89"/><line style="stroke:#666666;stroke-width:0.5;stroke-dasharray:5,5;" x1="44.834" x2="44.834" y1="137.89" y2="1001.569"/></g><g><title>Governance Program</title><rect fill="#000000" fill-opacity="0.00000" height="863.679" width="8" x="301.418" y="137.89"/><line style="stroke:#666666;stroke-width:0.5;stroke-dasharray:5,5;" x1="304.918" x2="304.918" y1="137.89" y2="1001.569"/></g><g><title/><rect fill="#FFFFFF" height="56.632" style="stroke:#181818;stroke-width:1;" width="10" x="299.918" y="225.067"/></g><g><title/><rect fill="#FFFFFF" height="56.968" style="stroke:#181818;stroke-width:1;" width="10" x="299.918" y="619.683"/></g><g><title/><rect fill="#FFFFFF" height="56.632" style="stroke:#181818;stroke-width:1;" width="10" x="299.918" y="740.812"/></g><g><title/><rect fill="#FFFFFF" height="28.316" style="stroke:#181818;stroke-width:1;" width="10" x="299.918" y="869.969"/></g><g><title/><rect fill="#FFFFFF" height="56.632" style="stroke:#181818;stroke-width:1;" width="10" x="299.918" y="926.937"/></g><g><title>Oracle Program</title><rect fill="#000000" fill-opacity="0.00000" height="863.679" width="8" x="441.702" y="137.89"/><line style="stroke:#666666;stroke-width:0.5;stroke-dasharray:5,5;" x1="445.202" x2="445.202" y1="137.89" y2="1001.569"/></g><g><title/><rect fill="#FFFFFF" height="56.632" style="stroke:#181818;stroke-width:1;" width="10" x="440.202" y="354.224"/></g><g><title/><rect fill="#FFFFFF" height="56.632" style="stroke:#181818;stroke-width:1;" width="10" x="440.202" y="439.508"/></g><g><title>Registry Program</title><rect fill="#000000" fill-opacity="0.00000" height="863.679" width="8" x="569.666" y="137.89"/><line style="stroke:#666666;stroke-width:0.5;stroke-dasharray:5,5;" x1="573.166" x2="573.166" y1="137.89" y2="1001.569"/></g><g><title>PoA Config PDA</title><rect fill="#000000" fill-opacity="0.00000" height="863.679" width="8" x="695.828" y="137.89"/><line style="stroke:#666666;stroke-width:0.5;stroke-dasharray:5,5;" x1="699.328" x2="699.328" y1="137.89" y2="1001.569"/></g><g><title>Oracle Data PDA</title><rect fill="#000000" fill-opacity="0.00000" height="863.679" width="8" x="816.443" y="137.89"/><line style="stroke:#666666;stroke-width:0.5;stroke-dasharray:5,5;" x1="819.943" x2="819.943" y1="137.89" y2="1001.569"/></g><g><title>New Admin</title><rect fill="#000000" fill-opacity="0.00000" height="863.679" width="8" x="921.637" y="137.89"/><line style="stroke:#666666;stroke-width:0.5;stroke-dasharray:5,5;" x1="925.137" x2="925.137" y1="137.89" y2="1001.569"/></g><text fill="#000000" font-family="'Helvetica Neue'" font-size="14" lengthAdjust="spacing" textLength="73.668" x="5" y="134.908">DAO Admin</text><ellipse cx="44.834" cy="76.688" fill="#E2E2F0" rx="16" ry="16" style="stroke:#181818;stroke-width:0.5;"/><path d="M44.834,96.688 C48.834,96.688 51.834,96.688 55.834,92.688 C63.834,92.688 71.834,100.688 71.834,108.688 L71.834,112.688 C71.834,116.688 67.834,120.688 63.834,120.688 L25.834,120.688 C21.834,120.688 17.834,116.688 17.834,112.688 L17.834,108.688 C17.834,100.688 25.834,92.688 33.834,92.688 C37.834,96.688 40.834,96.688 44.834,96.688" fill="#E2E2F0" style="stroke:#181818;stroke-width:0.5;"/><rect fill="#E2E2F0" height="30.702" rx="2.5" ry="2.5" style="stroke:#181818;stroke-width:0.5;" width="147.784" x="231.026" y="106.188"/><text fill="#000000" font-family="'Helvetica Neue'" font-size="14" lengthAdjust="spacing" textLength="133.784" x="238.026" y="126.908">Governance Program</text><rect fill="#E2E2F0" height="30.702" rx="2.5" ry="2.5" style="stroke:#181818;stroke-width:0.5;" width="112.784" x="388.81" y="106.188"/><text fill="#000000" font-family="'Helvetica Neue'" font-size="14" lengthAdjust="spacing" textLength="98.784" x="395.81" y="126.908">Oracle Program</text><rect fill="#E2E2F0" height="30.702" rx="2.5" ry="2.5" style="stroke:#181818;stroke-width:0.5;" width="123.144" x="511.594" y="106.188"/><text fill="#000000" font-family="'Helvetica Neue'" font-size="14" lengthAdjust="spacing" textLength="109.144" x="518.594" y="126.908">Registry Program</text><text fill="#000000" font-family="'Helvetica Neue'" font-size="14" lengthAdjust="spacing" textLength="103.18" x="644.738" y="134.908">PoA Config PDA</text><ellipse cx="699.328" cy="105.188" fill="#E2E2F0" rx="12" ry="12" style="stroke:#181818;stroke-width:0.5;"/><line style="stroke:#181818;stroke-width:0.5;" x1="687.328" x2="711.328" y1="119.188" y2="119.188"/><text fill="#000000" font-family="'Helvetica Neue'" font-size="14" lengthAdjust="spacing" textLength="106.05" x="763.918" y="134.908">Oracle Data PDA</text><ellipse cx="819.943" cy="105.188" fill="#E2E2F0" rx="12" ry="12" style="stroke:#181818;stroke-width:0.5;"/><line style="stroke:#181818;stroke-width:0.5;" x1="807.943" x2="831.943" y1="119.188" y2="119.188"/><text fill="#000000" font-family="'Helvetica Neue'" font-size="14" lengthAdjust="spacing" textLength="72.338" x="885.968" y="134.908">New Admin</text><ellipse cx="925.137" cy="76.688" fill="#E2E2F0" rx="16" ry="16" style="stroke:#181818;stroke-width:0.5;"/><path d="M925.137,96.688 C929.137,96.688 932.137,96.688 936.137,92.688 C944.137,92.688 952.137,100.688 952.137,108.688 L952.137,112.688 C952.137,116.688 948.137,120.688 944.137,120.688 L906.137,120.688 C902.137,120.688 898.137,116.688 898.137,112.688 L898.137,108.688 C898.137,100.688 906.137,92.688 914.137,92.688 C918.137,96.688 921.137,96.688 925.137,96.688" fill="#E2E2F0" style="stroke:#181818;stroke-width:0.5;"/><rect fill="#FFFFFF" height="3" style="stroke:#FFFFFF;stroke-width:1;" width="959.306" x="5" y="166.8265"/><line style="stroke:#444444;stroke-width:1;" x1="5" x2="964.306" y1="166.8265" y2="166.8265"/><line style="stroke:#444444;stroke-width:1;" x1="5" x2="964.306" y1="169.8265" y2="169.8265"/><rect fill="#FFFFFF" height="23.873" style="stroke:#444444;stroke-width:2;" width="159.119" x="405.0935" y="155.89"/><text fill="#444444" font-family="'Helvetica Neue'" font-size="13" font-weight="bold" lengthAdjust="spacing" textLength="141.505" x="411.0935" y="172.942">Platform Configuration</text><polygon fill="#666666" points="287.918,221.067,297.918,225.067,287.918,229.067,291.918,225.067" style="stroke:#666666;stroke-width:1;"/><line style="stroke:#666666;stroke-width:1;" x1="44.834" x2="293.918" y1="225.067" y2="225.067"/><text fill="#666666" font-family="'Helvetica Neue'" font-size="12" font-weight="bold" lengthAdjust="spacing" textLength="231.084" x="56.834" y="205.811">update_governance_config(valid_period,</text><text fill="#666666" font-family="'Helvetica Neue'" font-size="12" font-weight="bold" lengthAdjust="spacing" textLength="34.38" x="155.186" y="220.463">limits)</text><polygon fill="#666666" points="687.328,249.383,697.328,253.383,687.328,257.383,691.328,253.383" style="stroke:#666666;stroke-width:1;"/><line style="stroke:#666666;stroke-width:1;" x1="309.918" x2="693.328" y1="253.383" y2="253.383"/><text fill="#666666" font-family="'Helvetica Neue'" font-size="12" lengthAdjust="spacing" textLength="39.564" x="442.061" y="248.827">Update</text><text fill="#666666" font-family="'Helvetica Neue'" font-size="12" lengthAdjust="spacing" textLength="3.336" x="481.625" y="248.827">&#160;</text><text fill="#666666" font-family="'Helvetica Neue'" font-size="12" lengthAdjust="spacing" textLength="34.884" x="484.961" y="248.827">Global</text><text fill="#666666" font-family="'Helvetica Neue'" font-size="12" lengthAdjust="spacing" textLength="3.336" x="519.845" y="248.827">&#160;</text><text fill="#666666" font-family="'Helvetica Neue'" font-size="12" lengthAdjust="spacing" textLength="44.004" x="523.181" y="248.827">Settings</text><polygon fill="#666666" points="55.834,277.699,45.834,281.699,55.834,285.699,51.834,281.699" style="stroke:#666666;stroke-width:1;"/><line style="stroke:#666666;stroke-width:1;stroke-dasharray:2,2;" x1="49.834" x2="298.918" y1="281.699" y2="281.699"/><text fill="#666666" font-family="'Helvetica Neue'" font-size="12" lengthAdjust="spacing" textLength="46.68" x="149.036" y="277.143">Updated</text><rect fill="#FFFFFF" height="3" style="stroke:#FFFFFF;stroke-width:1;" width="959.306" x="5" y="310.6355"/><line style="stroke:#444444;stroke-width:1;" x1="5" x2="964.306" y1="310.6355" y2="310.6355"/><line style="stroke:#444444;stroke-width:1;" x1="5" x2="964.306" y1="313.6355" y2="313.6355"/><rect fill="#FFFFFF" height="23.873" style="stroke:#444444;stroke-width:2;" width="143.493" x="412.9065" y="299.699"/><text fill="#444444" font-family="'Helvetica Neue'" font-size="13" font-weight="bold" lengthAdjust="spacing" textLength="125.879" x="418.9065" y="316.751">Oracle Management</text><polygon fill="#666666" points="428.202,350.224,438.202,354.224,428.202,358.224,432.202,354.224" style="stroke:#666666;stroke-width:1;"/><line style="stroke:#666666;stroke-width:1;" x1="44.834" x2="434.202" y1="354.224" y2="354.224"/><text fill="#666666" font-family="'Helvetica Neue'" font-size="12" font-weight="bold" lengthAdjust="spacing" textLength="210.612" x="137.212" y="349.62">update_validation_config(thresholds)</text><polygon fill="#666666" points="807.943,378.54,817.943,382.54,807.943,386.54,811.943,382.54" style="stroke:#666666;stroke-width:1;"/><line style="stroke:#666666;stroke-width:1;" x1="450.202" x2="813.943" y1="382.54" y2="382.54"/><text fill="#666666" font-family="'Helvetica Neue'" font-size="12" lengthAdjust="spacing" textLength="39.564" x="571.1725" y="377.984">Update</text><text fill="#666666" font-family="'Helvetica Neue'" font-size="12" lengthAdjust="spacing" textLength="3.336" x="610.7365" y="377.984">&#160;</text><text fill="#666666" font-family="'Helvetica Neue'" font-size="12" lengthAdjust="spacing" textLength="46.896" x="614.0725" y="377.984">Min/Max</text><text fill="#666666" font-family="'Helvetica Neue'" font-size="12" lengthAdjust="spacing" textLength="3.336" x="660.9685" y="377.984">&#160;</text><text fill="#666666" font-family="'Helvetica Neue'" font-size="12" lengthAdjust="spacing" textLength="34.668" x="664.3045" y="377.984">Range</text><polygon fill="#666666" points="55.834,406.856,45.834,410.856,55.834,414.856,51.834,410.856" style="stroke:#666666;stroke-width:1;"/><line style="stroke:#666666;stroke-width:1;stroke-dasharray:2,2;" x1="49.834" x2="439.202" y1="410.856" y2="410.856"/><text fill="#666666" font-family="'Helvetica Neue'" font-size="12" lengthAdjust="spacing" textLength="45.78" x="219.628" y="406.3">Success</text><polygon fill="#666666" points="428.202,435.508,438.202,439.508,428.202,443.508,432.202,439.508" style="stroke:#666666;stroke-width:1;"/><line style="stroke:#666666;stroke-width:1;" x1="44.834" x2="434.202" y1="439.508" y2="439.508"/><text fill="#666666" font-family="'Helvetica Neue'" font-size="12" font-weight="bold" lengthAdjust="spacing" textLength="186.864" x="149.086" y="434.904">add_backup_oracle(NewPubkey)</text><polygon fill="#666666" points="807.943,463.824,817.943,467.824,807.943,471.824,811.943,467.824" style="stroke:#666666;stroke-width:1;"/><line style="stroke:#666666;stroke-width:1;" x1="450.202" x2="813.943" y1="467.824" y2="467.824"/><text fill="#666666" font-family="'Helvetica Neue'" font-size="12" lengthAdjust="spacing" textLength="22.008" x="592.5085" y="463.268">Add</text><text fill="#666666" font-family="'Helvetica Neue'" font-size="12" lengthAdjust="spacing" textLength="3.336" x="614.5165" y="463.268">&#160;</text><text fill="#666666" font-family="'Helvetica Neue'" font-size="12" lengthAdjust="spacing" textLength="10.668" x="617.8525" y="463.268">to</text><text fill="#666666" font-family="'Helvetica Neue'" font-size="12" lengthAdjust="spacing" textLength="3.336" x="628.5205" y="463.268">&#160;</text><text fill="#666666" font-family="'Helvetica Neue'" font-size="12" lengthAdjust="spacing" textLength="45.78" x="631.8565" y="463.268">Whitelist</text><polygon fill="#666666" points="55.834,492.14,45.834,496.14,55.834,500.14,51.834,496.14" style="stroke:#666666;stroke-width:1;"/><line style="stroke:#666666;stroke-width:1;stroke-dasharray:2,2;" x1="49.834" x2="439.202" y1="496.14" y2="496.14"/><text fill="#666666" font-family="'Helvetica Neue'" font-size="12" lengthAdjust="spacing" textLength="35.568" x="224.734" y="491.584">Added</text><rect fill="#FFFFFF" height="3" style="stroke:#FFFFFF;stroke-width:1;" width="959.306" x="5" y="525.0765"/><line style="stroke:#444444;stroke-width:1;" x1="5" x2="964.306" y1="525.0765" y2="525.0765"/><line style="stroke:#444444;stroke-width:1;" x1="5" x2="964.306" y1="528.0765" y2="528.0765"/><rect fill="#FFFFFF" height="23.873" style="stroke:#444444;stroke-width:2;" width="151.202" x="409.052" y="514.14"/><text fill="#444444" font-family="'Helvetica Neue'" font-size="13" font-weight="bold" lengthAdjust="spacing" textLength="133.588" x="415.052" y="531.192">Emergency Protocols</text><path d="M49.834,553.013 L49.834,594.013 L254.834,594.013 L254.834,563.013 L244.834,553.013 L49.834,553.013" fill="#FEFFDD" style="stroke:#181818;stroke-width:0.5;"/><path d="M244.834,553.013 L244.834,563.013 L254.834,563.013 L244.834,553.013" fill="#FEFFDD" style="stroke:#181818;stroke-width:0.5;"/><text fill="#000000" font-family="'Helvetica Neue'" font-size="13" lengthAdjust="spacing" textLength="40.196" x="64.834" y="570.753">Severe</text><text fill="#000000" font-family="'Helvetica Neue'" font-size="13" lengthAdjust="spacing" textLength="3.614" x="105.03" y="570.753">&#160;</text><text fill="#000000" font-family="'Helvetica Neue'" font-size="13" lengthAdjust="spacing" textLength="46.475" x="108.644" y="570.753">Incident</text><text fill="#000000" font-family="'Helvetica Neue'" font-size="13" lengthAdjust="spacing" textLength="3.614" x="155.119" y="570.753">&#160;</text><text fill="#000000" font-family="'Helvetica Neue'" font-size="13" lengthAdjust="spacing" textLength="52.975" x="158.733" y="570.753">Detected</text><text fill="#000000" font-family="'Helvetica Neue'" font-size="13" lengthAdjust="spacing" textLength="3.614" x="211.708" y="570.753">&#160;</text><text fill="#000000" font-family="'Helvetica Neue'" font-size="13" lengthAdjust="spacing" textLength="25.038" x="215.322" y="570.753">(e.g.</text><text fill="#000000" font-family="'Helvetica Neue'" font-size="13" lengthAdjust="spacing" textLength="43.082" x="131.056" y="586.262">Exploit)</text><polygon fill="#666666" points="287.918,615.683,297.918,619.683,287.918,623.683,291.918,619.683" style="stroke:#666666;stroke-width:1;"/><line style="stroke:#666666;stroke-width:1;" x1="44.834" x2="293.918" y1="619.683" y2="619.683"/><text fill="#666666" font-family="'Helvetica Neue'" font-size="12" font-weight="bold" lengthAdjust="spacing" textLength="111.54" x="116.606" y="615.079">emergency_pause()</text><polygon fill="#666666" points="687.328,643.999,697.328,647.999,687.328,651.999,691.328,647.999" style="stroke:#666666;stroke-width:1;"/><line style="stroke:#666666;stroke-width:1;" x1="309.918" x2="693.328" y1="647.999" y2="647.999"/><text fill="#666666" font-family="'Helvetica Neue'" font-size="12" lengthAdjust="spacing" textLength="18" x="454.793" y="643.443">Set</text><text fill="#666666" font-family="'Helvetica Neue'" font-size="12" lengthAdjust="spacing" textLength="3.336" x="472.793" y="643.443">&#160;</text><text fill="#666666" font-family="'Helvetica Neue'" font-size="12" lengthAdjust="spacing" textLength="40.452" x="476.129" y="643.443">Paused</text><text fill="#666666" font-family="'Helvetica Neue'" font-size="12" lengthAdjust="spacing" textLength="3.336" x="516.581" y="643.443">&#160;</text><text fill="#666666" font-family="'Helvetica Neue'" font-size="12" lengthAdjust="spacing" textLength="7.2" x="519.917" y="643.443">=</text><text fill="#666666" font-family="'Helvetica Neue'" font-size="12" lengthAdjust="spacing" textLength="3.336" x="527.117" y="643.443">&#160;</text><text fill="#666666" font-family="'Helvetica Neue'" font-size="12" lengthAdjust="spacing" textLength="24" x="530.453" y="643.443">True</text><polygon fill="#666666" points="55.834,672.651,45.834,676.651,55.834,680.651,51.834,676.651" style="stroke:#666666;stroke-width:1;"/><line style="stroke:#666666;stroke-width:1;stroke-dasharray:2,2;" x1="49.834" x2="298.918" y1="676.651" y2="676.651"/><text fill="#666666" font-family="'Helvetica Neue'" font-size="12" font-weight="bold" lengthAdjust="spacing" textLength="66.672" x="112.592" y="672.047">PLATFORM</text><text fill="#666666" font-family="'Helvetica Neue'" font-size="12" font-weight="bold" lengthAdjust="spacing" textLength="3.336" x="179.264" y="672.047">&#160;</text><text fill="#666666" font-family="'Helvetica Neue'" font-size="12" font-weight="bold" lengthAdjust="spacing" textLength="49.56" x="182.6" y="672.047">FROZEN</text><path d="M309.918,689.651 L309.918,714.651 L501.918,714.651 L501.918,699.651 L491.918,689.651 L309.918,689.651" fill="#FEFFDD" style="stroke:#181818;stroke-width:0.5;"/><path d="M491.918,689.651 L491.918,699.651 L501.918,699.651 L491.918,689.651" fill="#FEFFDD" style="stroke:#181818;stroke-width:0.5;"/><text fill="#000000" font-family="'Helvetica Neue'" font-size="13" lengthAdjust="spacing" textLength="14.196" x="324.918" y="707.391">All</text><text fill="#000000" font-family="'Helvetica Neue'" font-size="13" lengthAdjust="spacing" textLength="3.614" x="339.114" y="707.391">&#160;</text><text fill="#000000" font-family="'Helvetica Neue'" font-size="13" lengthAdjust="spacing" textLength="44.057" x="342.728" y="707.391">Trading</text><text fill="#000000" font-family="'Helvetica Neue'" font-size="13" lengthAdjust="spacing" textLength="3.614" x="386.785" y="707.391">&#160;</text><text fill="#000000" font-family="'Helvetica Neue'" font-size="13" lengthAdjust="spacing" textLength="8.19" x="390.399" y="707.391">&amp;</text><text fill="#000000" font-family="'Helvetica Neue'" font-size="13" lengthAdjust="spacing" textLength="3.614" x="398.589" y="707.391">&#160;</text><text fill="#000000" font-family="'Helvetica Neue'" font-size="13" lengthAdjust="spacing" textLength="43.108" x="402.203" y="707.391">Minting</text><text fill="#000000" font-family="'Helvetica Neue'" font-size="13" lengthAdjust="spacing" textLength="3.614" x="445.311" y="707.391">&#160;</text><text fill="#000000" font-family="'Helvetica Neue'" font-size="13" lengthAdjust="spacing" textLength="38.038" x="448.925" y="707.391">Halted</text><polygon fill="#666666" points="287.918,736.812,297.918,740.812,287.918,744.812,291.918,740.812" style="stroke:#666666;stroke-width:1;"/><line style="stroke:#666666;stroke-width:1;" x1="44.834" x2="293.918" y1="740.812" y2="740.812"/><text fill="#666666" font-family="'Helvetica Neue'" font-size="12" font-weight="bold" lengthAdjust="spacing" textLength="125.772" x="109.49" y="736.208">emergency_unpause()</text><polygon fill="#666666" points="687.328,765.128,697.328,769.128,687.328,773.128,691.328,769.128" style="stroke:#666666;stroke-width:1;"/><line style="stroke:#666666;stroke-width:1;" x1="309.918" x2="693.328" y1="769.128" y2="769.128"/><text fill="#666666" font-family="'Helvetica Neue'" font-size="12" lengthAdjust="spacing" textLength="18" x="452.573" y="764.572">Set</text><text fill="#666666" font-family="'Helvetica Neue'" font-size="12" lengthAdjust="spacing" textLength="3.336" x="470.573" y="764.572">&#160;</text><text fill="#666666" font-family="'Helvetica Neue'" font-size="12" lengthAdjust="spacing" textLength="40.452" x="473.909" y="764.572">Paused</text><text fill="#666666" font-family="'Helvetica Neue'" font-size="12" lengthAdjust="spacing" textLength="3.336" x="514.361" y="764.572">&#160;</text><text fill="#666666" font-family="'Helvetica Neue'" font-size="12" lengthAdjust="spacing" textLength="7.2" x="517.697" y="764.572">=</text><text fill="#666666" font-family="'Helvetica Neue'" font-size="12" lengthAdjust="spacing" textLength="3.336" x="524.897" y="764.572">&#160;</text><text fill="#666666" font-family="'Helvetica Neue'" font-size="12" lengthAdjust="spacing" textLength="28.44" x="528.233" y="764.572">False</text><polygon fill="#666666" points="55.834,793.444,45.834,797.444,55.834,801.444,51.834,797.444" style="stroke:#666666;stroke-width:1;"/><line style="stroke:#666666;stroke-width:1;stroke-dasharray:2,2;" x1="49.834" x2="298.918" y1="797.444" y2="797.444"/><text fill="#666666" font-family="'Helvetica Neue'" font-size="12" lengthAdjust="spacing" textLength="59.124" x="115.58" y="792.888">Operations</text><text fill="#666666" font-family="'Helvetica Neue'" font-size="12" lengthAdjust="spacing" textLength="3.336" x="174.704" y="792.888">&#160;</text><text fill="#666666" font-family="'Helvetica Neue'" font-size="12" lengthAdjust="spacing" textLength="51.132" x="178.04" y="792.888">Resumed</text><rect fill="#FFFFFF" height="3" style="stroke:#FFFFFF;stroke-width:1;" width="959.306" x="5" y="826.3805"/><line style="stroke:#444444;stroke-width:1;" x1="5" x2="964.306" y1="826.3805" y2="826.3805"/><line style="stroke:#444444;stroke-width:1;" x1="5" x2="964.306" y1="829.3805" y2="829.3805"/><rect fill="#FFFFFF" height="23.873" style="stroke:#444444;stroke-width:2;" width="130.753" x="419.2765" y="815.444"/><text fill="#444444" font-family="'Helvetica Neue'" font-size="13" font-weight="bold" lengthAdjust="spacing" textLength="113.139" x="425.2765" y="832.496">Authority Rotation</text><polygon fill="#666666" points="287.918,865.969,297.918,869.969,287.918,873.969,291.918,869.969" style="stroke:#666666;stroke-width:1;"/><line style="stroke:#666666;stroke-width:1;" x1="44.834" x2="293.918" y1="869.969" y2="869.969"/><text fill="#666666" font-family="'Helvetica Neue'" font-size="12" font-weight="bold" lengthAdjust="spacing" textLength="221.736" x="61.508" y="865.365">propose_authority_change(NewAdmin)</text><polygon fill="#666666" points="687.328,894.285,697.328,898.285,687.328,902.285,691.328,898.285" style="stroke:#666666;stroke-width:1;"/><line style="stroke:#666666;stroke-width:1;" x1="309.918" x2="693.328" y1="898.285" y2="898.285"/><text fill="#666666" font-family="'Helvetica Neue'" font-size="12" lengthAdjust="spacing" textLength="28.884" x="464.627" y="893.729">Store</text><text fill="#666666" font-family="'Helvetica Neue'" font-size="12" lengthAdjust="spacing" textLength="3.336" x="493.511" y="893.729">&#160;</text><text fill="#666666" font-family="'Helvetica Neue'" font-size="12" lengthAdjust="spacing" textLength="47.772" x="496.847" y="893.729">Proposal</text><polygon fill="#666666" points="320.918,922.937,310.918,926.937,320.918,930.937,316.918,926.937" style="stroke:#666666;stroke-width:1;"/><line style="stroke:#666666;stroke-width:1;" x1="314.918" x2="924.137" y1="926.937" y2="926.937"/><text fill="#666666" font-family="'Helvetica Neue'" font-size="12" font-weight="bold" lengthAdjust="spacing" textLength="158.904" x="538.0755" y="922.333">approve_authority_change()</text><polygon fill="#666666" points="687.328,951.253,697.328,955.253,687.328,959.253,691.328,955.253" style="stroke:#666666;stroke-width:1;"/><line style="stroke:#666666;stroke-width:1;" x1="309.918" x2="693.328" y1="955.253" y2="955.253"/><text fill="#666666" font-family="'Helvetica Neue'" font-size="12" lengthAdjust="spacing" textLength="39.564" x="447.167" y="950.697">Update</text><text fill="#666666" font-family="'Helvetica Neue'" font-size="12" lengthAdjust="spacing" textLength="3.336" x="486.731" y="950.697">&#160;</text><text fill="#666666" font-family="'Helvetica Neue'" font-size="12" lengthAdjust="spacing" textLength="48.228" x="490.067" y="950.697">Authority</text><text fill="#666666" font-family="'Helvetica Neue'" font-size="12" lengthAdjust="spacing" textLength="3.336" x="538.295" y="950.697">&#160;</text><text fill="#666666" font-family="'Helvetica Neue'" font-size="12" lengthAdjust="spacing" textLength="20.448" x="541.631" y="950.697">Key</text><polygon fill="#666666" points="913.137,979.569,923.137,983.569,913.137,987.569,917.137,983.569" style="stroke:#666666;stroke-width:1;"/><line style="stroke:#666666;stroke-width:1;stroke-dasharray:2,2;" x1="309.918" x2="919.137" y1="983.569" y2="983.569"/><text fill="#666666" font-family="'Helvetica Neue'" font-size="12" lengthAdjust="spacing" textLength="48.228" x="560.9715" y="979.013">Authority</text><text fill="#666666" font-family="'Helvetica Neue'" font-size="12" lengthAdjust="spacing" textLength="3.336" x="609.1995" y="979.013">&#160;</text><text fill="#666666" font-family="'Helvetica Neue'" font-size="12" lengthAdjust="spacing" textLength="61.548" x="612.5355" y="979.013">Transferred</text><?plantuml-src bPHHRzem58NVyolkU9XejBKlVKAZKbHAEsqKH3jjcYP5j_4bM3XsPZki_FjT1m99OLNtW1JiutC_Nn_xdTIPgWJ1f-lBY-lBz85-LwGpkeeYjvAwH8i525fWfVpOQ7-F1K7lZjIQlCmGxgcYNkIbLmHnV6kbU3GhqZy6S6lMP3Mo5xo7H1HImxHqSVnBZv8fJ51ZJWLfpxCt1TcSgsxWcajOermKOUQDXLxGrejxW6xx5J4KrvObyk9UgypCcfnnQoKFTtLJYvdgQhP3NTcSSkcytNI4pM34kD9le3SpIK1To1ncewJMyD1-UbThX1xtyzFmBug6GvWfz0jZYvr3PT5Bes4uZBPT-dWLw0VSpgeKw2dDzrjCitf9VurAYhGaAutu04eMqhkpE0vDasjUKc-VVy6BmGRmhNQ2MsMUKC43UIzrxhOIrjI56vM817MC0lHkIwrZQ_DkPrl8DM2zhmRPBosvfL6Y2xexWvrzi0fzsWDFfBwOu3FCKUS7rO7ueSeoSgvDl7Cy1OT2f4-OhQeoDVLW_vx-pAgd5MtU19K80Tx0zwNqf3WH9u1OqcrWWyCzFCISm-LDnZaFNTI6PLRcImzciTyOyPaJVDQP5A7R8_AKyTb0dyxpSxXvBfMH_YmwoWmrHT8IAqVzLsF1GO1Pa0aOmgEjw6KYudZsDNaSJ-SJ6C-dFs_ksUrbEhhyDKQY5DkXu93nzUP33763ErGXNQyWL_f_eSUet17rb6z67RvmTLrLd8vqKlcbiU72pet_vnqihIcDenGRTPejGnX3T6hjwwpyYDMF3dkWEgBOFN9irNha6kEe-MZHOCaywnCqRxdzXmr_eSs-PqsLGMkUpqwx1LbxtBc_?></g></svg>